<svg width="393" height="851" viewBox="0 0 393 851" fill="none" xmlns="http://www.w3.org/2000/svg">
<g clip-path="url(#clip0_17_8863)">
<path d="M-31.484 80.0879C19.8056 80.0879 61.384 38.5095 61.384 -12.7801C61.384 -64.0697 19.8056 -105.648 -31.484 -105.648C-82.7736 -105.648 -124.352 -64.0697 -124.352 -12.7801C-124.352 38.5095 -82.7736 80.0879 -31.484 80.0879Z" fill="#FCF1E6" stroke="#DFC298" stroke-width="0.75" stroke-miterlimit="10"/>
<path d="M23.2982 44.0019C54.1057 13.1943 54.1057 -36.7545 23.2982 -67.5621C-7.50934 -98.3696 -57.4582 -98.3696 -88.2658 -67.5621C-119.073 -36.7545 -119.073 13.1943 -88.2658 44.0019C-57.4582 74.8094 -7.50934 74.8094 23.2982 44.0019Z" fill="#FCF1E6" stroke="#DFC298" stroke-width="0.75" stroke-miterlimit="10"/>
<path d="M26.8199 14.5791C41.3774 -18.178 26.6237 -56.5341 -6.13343 -71.0917C-38.8906 -85.6492 -77.2467 -70.8955 -91.8043 -38.1384C-106.362 -5.38122 -91.6081 32.9749 -58.8509 47.5325C-26.0938 62.09 12.2623 47.3363 26.8199 14.5791Z" fill="#FCF1E6" stroke="#DFC298" stroke-width="0.75" stroke-miterlimit="10"/>
<path d="M-9.38779 31.3519C14.4388 18.5995 23.4162 -11.0536 10.6639 -34.8802C-2.08852 -58.7069 -31.7417 -67.6843 -55.5683 -54.9319C-79.3949 -42.1795 -88.3723 -12.5264 -75.6199 11.3002C-62.8676 35.1268 -33.2144 44.1043 -9.38779 31.3519Z" fill="#FCF1E6" stroke="#DFC298" stroke-width="0.75" stroke-miterlimit="10"/>
<path d="M-15.3561 18.683C1.47395 9.22854 7.45304 -12.0793 -2.00145 -28.9094C-11.4559 -45.7395 -32.7638 -51.7186 -49.5939 -42.2641C-66.424 -32.8096 -72.4031 -11.5017 -62.9486 5.32836C-53.4941 22.1584 -32.1862 28.1375 -15.3561 18.683Z" fill="#FCF1E6" stroke="#DFC298" stroke-width="0.75" stroke-miterlimit="10"/>
<path d="M154.252 80.088C205.542 80.088 247.12 38.5096 247.12 -12.78C247.12 -64.0696 205.542 -105.648 154.252 -105.648C102.962 -105.648 61.384 -64.0696 61.384 -12.78C61.384 38.5096 102.962 80.088 154.252 80.088Z" fill="#FCF1E6" stroke="#DFC298" stroke-width="0.75" stroke-miterlimit="10"/>
<path d="M227.261 15.5918C242.375 -25.2714 221.501 -70.6499 180.638 -85.7639C139.775 -100.878 94.3963 -80.0041 79.2823 -39.1409C64.1682 1.72231 85.0421 47.1009 125.905 62.2149C166.769 77.3289 212.147 56.4551 227.261 15.5918Z" fill="#FCF1E6" stroke="#DFC298" stroke-width="0.75" stroke-miterlimit="10"/>
<path d="M214.236 10.4748C226.525 -23.2 209.187 -60.4606 175.513 -72.749C141.838 -85.0374 104.577 -67.7003 92.2888 -34.0255C80.0004 -0.350614 97.3375 36.91 131.012 49.1984C164.687 61.4868 201.948 44.1497 214.236 10.4748Z" fill="#FCF1E6" stroke="#DFC298" stroke-width="0.75" stroke-miterlimit="10"/>
<path d="M172.979 32.9973C197.708 22.1015 208.922 -6.77836 198.026 -31.5076C187.13 -56.2368 158.25 -67.4509 133.521 -56.555C108.792 -45.6591 97.5779 -16.7793 108.474 7.94988C119.37 32.6791 148.25 43.8932 172.979 32.9973Z" fill="#FCF1E6" stroke="#DFC298" stroke-width="0.75" stroke-miterlimit="10"/>
<path d="M168.19 19.8289C185.641 11.5808 193.102 -9.25288 184.854 -26.7045C176.606 -44.1561 155.772 -51.6171 138.321 -43.369C120.869 -35.121 113.408 -14.2872 121.656 3.1644C129.904 20.616 150.738 28.077 168.19 19.8289Z" fill="#FCF1E6" stroke="#DFC298" stroke-width="0.75" stroke-miterlimit="10"/>
<path d="M155.577 7.04053C165.975 5.75277 173.361 -3.72081 172.073 -14.1193C170.786 -24.5178 161.312 -31.9035 150.913 -30.6158C140.515 -29.328 133.129 -19.8544 134.417 -9.45591C135.705 0.942589 145.178 8.3283 155.577 7.04053Z" fill="#FCF1E6" stroke="#DFC298" stroke-width="0.75" stroke-miterlimit="10"/>
<path d="M339.988 80.088C391.278 80.088 432.856 38.5096 432.856 -12.78C432.856 -64.0696 391.278 -105.648 339.988 -105.648C288.698 -105.648 247.12 -64.0696 247.12 -12.78C247.12 38.5096 288.698 80.088 339.988 80.088Z" fill="#FCF1E6" stroke="#DFC298" stroke-width="0.75" stroke-miterlimit="10"/>
<path d="M413.719 13.5711C427.714 -27.6886 405.611 -72.4808 364.351 -86.4751C323.091 -100.469 278.299 -78.3665 264.305 -37.1068C250.311 4.15289 272.413 48.9451 313.673 62.9394C354.933 76.9337 399.725 54.8308 413.719 13.5711Z" fill="#FCF1E6" stroke="#DFC298" stroke-width="0.75" stroke-miterlimit="10"/>
<path d="M400.556 8.85377C411.941 -25.1365 393.616 -61.9205 359.625 -73.3056C325.635 -84.6907 288.851 -66.3655 277.466 -32.3752C266.081 1.6151 284.406 38.3991 318.396 49.7842C352.387 61.1692 389.171 42.8441 400.556 8.85377Z" fill="#FCF1E6" stroke="#DFC298" stroke-width="0.75" stroke-miterlimit="10"/>
<path d="M357.156 33.6676C382.253 23.6446 394.473 -4.82558 384.45 -29.9223C374.427 -55.019 345.957 -67.2387 320.86 -57.2157C295.763 -47.1926 283.544 -18.7225 293.567 6.37425C303.59 31.471 332.06 43.6906 357.156 33.6676Z" fill="#FCF1E6" stroke="#DFC298" stroke-width="0.75" stroke-miterlimit="10"/>
<path d="M353.104 20.1995C370.766 12.4108 378.77 -8.22104 370.981 -25.8831C363.193 -43.5451 342.561 -51.5491 324.899 -43.7604C307.237 -35.9717 299.233 -15.3399 307.022 2.32216C314.81 19.9842 335.442 27.9881 353.104 20.1995Z" fill="#FCF1E6" stroke="#DFC298" stroke-width="0.75" stroke-miterlimit="10"/>
<path d="M341.656 7.02412C352.028 5.54147 359.235 -4.06887 357.752 -14.4412C356.27 -24.8135 346.659 -32.02 336.287 -30.5373C325.915 -29.0547 318.708 -19.4443 320.191 -9.07201C321.674 1.3003 331.284 8.50678 341.656 7.02412Z" fill="#FCF1E6" stroke="#DFC298" stroke-width="0.75" stroke-miterlimit="10"/>
<path d="M60.5319 134.616C111.822 134.616 153.4 93.0376 153.4 41.748C153.4 -9.54158 111.822 -51.12 60.5319 -51.12C9.24236 -51.12 -32.3361 -9.54158 -32.3361 41.748C-32.3361 93.0376 9.24236 134.616 60.5319 134.616Z" fill="#FCF1E6" stroke="#DFC298" stroke-width="0.75" stroke-miterlimit="10"/>
<path d="M59.5334 121.635C103.102 121.635 138.422 86.3154 138.422 42.7465C138.422 -0.822319 103.102 -36.1418 59.5334 -36.1418C15.9646 -36.1418 -19.355 -0.822319 -19.355 42.7465C-19.355 86.3154 15.9646 121.635 59.5334 121.635Z" fill="#FCF1E6" stroke="#DFC298" stroke-width="0.75" stroke-miterlimit="10"/>
<path d="M59.5334 107.654C95.3806 107.654 124.441 78.5937 124.441 42.7465C124.441 6.89936 95.3806 -22.1605 59.5334 -22.1605C23.6863 -22.1605 -5.37363 6.89936 -5.37363 42.7465C-5.37363 78.5937 23.6863 107.654 59.5334 107.654Z" fill="#FCF1E6" stroke="#DFC298" stroke-width="0.75" stroke-miterlimit="10"/>
<path d="M98.4572 72.4068C114.831 50.9096 110.677 20.2094 89.18 3.83582C67.6828 -12.5377 36.9825 -8.38417 20.609 13.113C4.23546 34.6102 8.38901 65.3105 29.8862 81.684C51.3834 98.0576 82.0837 93.904 98.4572 72.4068Z" fill="#FCF1E6" stroke="#DFC298" stroke-width="0.75" stroke-miterlimit="10"/>
<path d="M87.9041 63.1605C99.175 47.4905 95.6088 25.6506 79.9388 14.3797C64.2688 3.10884 42.4289 6.67502 31.158 22.345C19.8872 38.015 23.4533 59.8549 39.1233 71.1258C54.7933 82.3966 76.6332 78.8305 87.9041 63.1605Z" fill="#FCF1E6" stroke="#DFC298" stroke-width="0.75" stroke-miterlimit="10"/>
<path d="M59.5334 61.7188C70.0116 61.7188 78.5058 53.2246 78.5058 42.7465C78.5058 32.2684 70.0116 23.7742 59.5334 23.7742C49.0553 23.7742 40.5611 32.2684 40.5611 42.7465C40.5611 53.2246 49.0553 61.7188 59.5334 61.7188Z" fill="#FCF1E6" stroke="#DFC298" stroke-width="0.75" stroke-miterlimit="10"/>
<path d="M246.268 134.616C297.557 134.616 339.136 93.0376 339.136 41.748C339.136 -9.54158 297.557 -51.12 246.268 -51.12C194.978 -51.12 153.4 -9.54158 153.4 41.748C153.4 93.0376 194.978 134.616 246.268 134.616Z" fill="#FCF1E6" stroke="#DFC298" stroke-width="0.75" stroke-miterlimit="10"/>
<path d="M245.269 121.635C288.838 121.635 324.158 86.3154 324.158 42.7465C324.158 -0.822319 288.838 -36.1418 245.269 -36.1418C201.701 -36.1418 166.381 -0.822319 166.381 42.7465C166.381 86.3154 201.701 121.635 245.269 121.635Z" fill="#FCF1E6" stroke="#DFC298" stroke-width="0.75" stroke-miterlimit="10"/>
<path d="M245.269 107.654C281.117 107.654 310.176 78.5937 310.176 42.7465C310.176 6.89936 281.117 -22.1605 245.269 -22.1605C209.422 -22.1605 180.362 6.89936 180.362 42.7465C180.362 78.5937 209.422 107.654 245.269 107.654Z" fill="#FCF1E6" stroke="#DFC298" stroke-width="0.75" stroke-miterlimit="10"/>
<path d="M282.464 74.5297C300.021 53.9865 297.601 23.1 277.057 5.54283C256.514 -12.0143 225.628 -9.59363 208.07 10.9496C190.513 31.4929 192.934 62.3794 213.477 79.9365C234.021 97.4937 264.907 95.073 282.464 74.5297Z" fill="#FCF1E6" stroke="#DFC298" stroke-width="0.75" stroke-miterlimit="10"/>
<path d="M272.904 64.163C284.735 48.91 281.96 26.9543 266.707 15.1237C251.454 3.293 229.499 6.06737 217.668 21.3204C205.837 36.5735 208.612 58.5291 223.865 70.3598C239.118 82.1905 261.073 79.4161 272.904 64.163Z" fill="#FCF1E6" stroke="#DFC298" stroke-width="0.75" stroke-miterlimit="10"/>
<path d="M245.269 61.7188C255.748 61.7188 264.242 53.2246 264.242 42.7465C264.242 32.2684 255.748 23.7742 245.269 23.7742C234.791 23.7742 226.297 32.2684 226.297 42.7465C226.297 53.2246 234.791 61.7188 245.269 61.7188Z" fill="#FCF1E6" stroke="#DFC298" stroke-width="0.75" stroke-miterlimit="10"/>
<path d="M432.004 134.616C483.294 134.616 524.872 93.0376 524.872 41.748C524.872 -9.54158 483.294 -51.12 432.004 -51.12C380.714 -51.12 339.136 -9.54158 339.136 41.748C339.136 93.0376 380.714 134.616 432.004 134.616Z" fill="#FCF1E6" stroke="#DFC298" stroke-width="0.75" stroke-miterlimit="10"/>
<path d="M431.005 121.635C474.574 121.635 509.894 86.3154 509.894 42.7465C509.894 -0.822319 474.574 -36.1418 431.005 -36.1418C387.437 -36.1418 352.117 -0.822319 352.117 42.7465C352.117 86.3154 387.437 121.635 431.005 121.635Z" fill="#FCF1E6" stroke="#DFC298" stroke-width="0.75" stroke-miterlimit="10"/>
<path d="M431.005 107.654C466.853 107.654 495.912 78.5937 495.912 42.7465C495.912 6.89936 466.853 -22.1605 431.005 -22.1605C395.158 -22.1605 366.098 6.89936 366.098 42.7465C366.098 78.5937 395.158 107.654 431.005 107.654Z" fill="#FCF1E6" stroke="#DFC298" stroke-width="0.75" stroke-miterlimit="10"/>
<path d="M465.599 77.3493C484.708 58.241 484.708 27.2603 465.599 8.15196C446.491 -10.9563 415.51 -10.9563 396.402 8.15196C377.294 27.2603 377.294 58.241 396.402 77.3493C415.51 96.4576 446.491 96.4576 465.599 77.3493Z" fill="#FCF1E6" stroke="#DFC298" stroke-width="0.75" stroke-miterlimit="10"/>
<path d="M457.801 65.2058C470.196 50.4083 468.247 28.365 453.45 15.9707C438.652 3.57635 416.609 5.52451 404.215 20.322C391.821 35.1195 393.769 57.1628 408.566 69.5571C423.364 81.9514 445.407 80.0033 457.801 65.2058Z" fill="#FCF1E6" stroke="#DFC298" stroke-width="0.75" stroke-miterlimit="10"/>
<path d="M-31.484 187.44C19.8056 187.44 61.384 145.862 61.384 94.572C61.384 43.2824 19.8056 1.70398 -31.484 1.70398C-82.7736 1.70398 -124.352 43.2824 -124.352 94.572C-124.352 145.862 -82.7736 187.44 -31.484 187.44Z" fill="#FCF1E6" stroke="#DFC298" stroke-width="0.75" stroke-miterlimit="10"/>
<path d="M-32.4826 174.459C11.0863 174.459 46.4058 139.139 46.4058 95.5705C46.4058 52.0017 11.0863 16.6821 -32.4826 16.6821C-76.0514 16.6821 -111.371 52.0017 -111.371 95.5705C-111.371 139.139 -76.0514 174.459 -32.4826 174.459Z" fill="#FCF1E6" stroke="#DFC298" stroke-width="0.75" stroke-miterlimit="10"/>
<path d="M-32.4825 160.478C3.36465 160.478 32.4245 131.418 32.4245 95.5705C32.4245 59.7233 3.36465 30.6635 -32.4825 30.6635C-68.3297 30.6635 -97.3896 59.7233 -97.3896 95.5705C-97.3896 131.418 -68.3297 160.478 -32.4825 160.478Z" fill="#FCF1E6" stroke="#DFC298" stroke-width="0.75" stroke-miterlimit="10"/>
<path d="M2.1141 130.17C21.2224 111.062 21.2224 80.0809 2.11409 60.9726C-16.9942 41.8643 -47.9749 41.8643 -67.0832 60.9726C-86.1915 80.0809 -86.1915 111.062 -67.0832 130.17C-47.9749 149.278 -16.9942 149.278 2.1141 130.17Z" fill="#FCF1E6" stroke="#DFC298" stroke-width="0.75" stroke-miterlimit="10"/>
<path d="M-7.77091 120.285C5.87808 106.636 5.87808 84.5066 -7.77091 70.8576C-21.4199 57.2086 -43.5493 57.2086 -57.1983 70.8576C-70.8472 84.5066 -70.8472 106.636 -57.1983 120.285C-43.5493 133.934 -21.4199 133.934 -7.77091 120.285Z" fill="#FCF1E6" stroke="#DFC298" stroke-width="0.75" stroke-miterlimit="10"/>
<path d="M154.252 187.44C205.542 187.44 247.12 145.862 247.12 94.572C247.12 43.2824 205.542 1.70398 154.252 1.70398C102.962 1.70398 61.384 43.2824 61.384 94.572C61.384 145.862 102.962 187.44 154.252 187.44Z" fill="#FCF1E6" stroke="#DFC298" stroke-width="0.75" stroke-miterlimit="10"/>
<path d="M153.253 174.459C196.822 174.459 232.142 139.139 232.142 95.5705C232.142 52.0017 196.822 16.6821 153.253 16.6821C109.685 16.6821 74.3651 52.0017 74.3651 95.5705C74.3651 139.139 109.685 174.459 153.253 174.459Z" fill="#FCF1E6" stroke="#DFC298" stroke-width="0.75" stroke-miterlimit="10"/>
<path d="M153.253 160.478C189.101 160.478 218.161 131.418 218.161 95.5705C218.161 59.7233 189.101 30.6635 153.253 30.6635C117.406 30.6635 88.3464 59.7233 88.3464 95.5705C88.3464 131.418 117.406 160.478 153.253 160.478Z" fill="#FCF1E6" stroke="#DFC298" stroke-width="0.75" stroke-miterlimit="10"/>
<path d="M185.192 132.639C205.657 114.993 207.942 84.0975 190.296 63.6326C172.65 43.1677 141.754 40.8829 121.289 58.5292C100.824 76.1755 98.5396 107.071 116.186 127.536C133.832 148.001 164.728 150.285 185.192 132.639Z" fill="#FCF1E6" stroke="#DFC298" stroke-width="0.75" stroke-miterlimit="10"/>
<path d="M176.799 121.406C191.066 108.403 192.091 86.2973 179.088 72.0306C166.086 57.764 143.98 56.739 129.713 69.7414C115.447 82.7437 114.422 104.85 127.424 119.116C140.427 133.383 162.532 134.408 176.799 121.406Z" fill="#FCF1E6" stroke="#DFC298" stroke-width="0.75" stroke-miterlimit="10"/>
<path d="M153.253 114.543C163.732 114.543 172.226 106.049 172.226 95.5705C172.226 85.0923 163.732 76.5981 153.253 76.5981C142.775 76.5981 134.281 85.0923 134.281 95.5705C134.281 106.049 142.775 114.543 153.253 114.543Z" fill="#FCF1E6" stroke="#DFC298" stroke-width="0.75" stroke-miterlimit="10"/>
<path d="M339.988 187.44C391.278 187.44 432.856 145.862 432.856 94.572C432.856 43.2824 391.278 1.70398 339.988 1.70398C288.698 1.70398 247.12 43.2824 247.12 94.572C247.12 145.862 288.698 187.44 339.988 187.44Z" fill="#FCF1E6" stroke="#DFC298" stroke-width="0.75" stroke-miterlimit="10"/>
<path d="M338.989 174.459C382.558 174.459 417.878 139.139 417.878 95.5705C417.878 52.0017 382.558 16.6821 338.989 16.6821C295.421 16.6821 260.101 52.0017 260.101 95.5705C260.101 139.139 295.421 174.459 338.989 174.459Z" fill="#FCF1E6" stroke="#DFC298" stroke-width="0.75" stroke-miterlimit="10"/>
<path d="M338.989 160.478C374.837 160.478 403.896 131.418 403.896 95.5705C403.896 59.7233 374.837 30.6635 338.989 30.6635C303.142 30.6635 274.082 59.7233 274.082 95.5705C274.082 131.418 303.142 160.478 338.989 160.478Z" fill="#FCF1E6" stroke="#DFC298" stroke-width="0.75" stroke-miterlimit="10"/>
<path d="M369.428 133.839C390.579 117.02 394.091 86.2384 377.271 65.0872C360.452 43.9359 329.671 40.4242 308.519 57.2436C287.368 74.063 283.856 104.844 300.676 125.996C317.495 147.147 348.277 150.659 369.428 133.839Z" fill="#FCF1E6" stroke="#DFC298" stroke-width="0.75" stroke-miterlimit="10"/>
<path d="M361.825 122.035C376.439 109.424 378.063 87.3543 365.453 72.7401C352.842 58.126 330.772 56.5018 316.158 69.1122C301.544 81.7227 299.92 103.793 312.53 118.407C325.141 133.021 347.211 134.645 361.825 122.035Z" fill="#FCF1E6" stroke="#DFC298" stroke-width="0.75" stroke-miterlimit="10"/>
<path d="M338.989 114.543C349.468 114.543 357.962 106.049 357.962 95.5705C357.962 85.0923 349.468 76.5981 338.989 76.5981C328.511 76.5981 320.017 85.0923 320.017 95.5705C320.017 106.049 328.511 114.543 338.989 114.543Z" fill="#FCF1E6" stroke="#DFC298" stroke-width="0.75" stroke-miterlimit="10"/>
<path d="M60.5319 241.968C111.822 241.968 153.4 200.39 153.4 149.1C153.4 97.8103 111.822 56.2319 60.5319 56.2319C9.24236 56.2319 -32.3361 97.8103 -32.3361 149.1C-32.3361 200.39 9.24236 241.968 60.5319 241.968Z" fill="#FCF1E6" stroke="#DFC298" stroke-width="0.75" stroke-miterlimit="10"/>
<path d="M59.5334 228.987C103.102 228.987 138.422 193.667 138.422 150.098C138.422 106.53 103.102 71.2101 59.5334 71.2101C15.9646 71.2101 -19.355 106.53 -19.355 150.098C-19.355 193.667 15.9646 228.987 59.5334 228.987Z" fill="#FCF1E6" stroke="#DFC298" stroke-width="0.75" stroke-miterlimit="10"/>
<path d="M59.5334 215.006C95.3806 215.006 124.441 185.946 124.441 150.098C124.441 114.251 95.3806 85.1914 59.5334 85.1914C23.6863 85.1914 -5.37363 114.251 -5.37363 150.098C-5.37363 185.946 23.6863 215.006 59.5334 215.006Z" fill="#FCF1E6" stroke="#DFC298" stroke-width="0.75" stroke-miterlimit="10"/>
<path d="M94.129 184.698C113.237 165.59 113.237 134.609 94.129 115.501C75.0207 96.3924 44.04 96.3924 24.9317 115.501C5.82338 134.609 5.82339 165.59 24.9317 184.698C44.04 203.806 75.0207 203.806 94.129 184.698Z" fill="#FCF1E6" stroke="#DFC298" stroke-width="0.75" stroke-miterlimit="10"/>
<path d="M83.4164 175.612C97.5016 162.415 98.2214 140.298 85.0241 126.213C71.8268 112.128 49.71 111.408 35.6247 124.605C21.5395 137.802 20.8197 159.919 34.017 174.004C47.2143 188.09 69.3312 188.809 83.4164 175.612Z" fill="#FCF1E6" stroke="#DFC298" stroke-width="0.75" stroke-miterlimit="10"/>
<path d="M59.5334 169.071C70.0116 169.071 78.5058 160.577 78.5058 150.098C78.5058 139.62 70.0116 131.126 59.5334 131.126C49.0553 131.126 40.5611 139.62 40.5611 150.098C40.5611 160.577 49.0553 169.071 59.5334 169.071Z" fill="#FCF1E6" stroke="#DFC298" stroke-width="0.75" stroke-miterlimit="10"/>
<path d="M246.268 241.968C297.557 241.968 339.136 200.39 339.136 149.1C339.136 97.8103 297.557 56.2319 246.268 56.2319C194.978 56.2319 153.4 97.8103 153.4 149.1C153.4 200.39 194.978 241.968 246.268 241.968Z" fill="#FCF1E6" stroke="#DFC298" stroke-width="0.75" stroke-miterlimit="10"/>
<path d="M245.269 228.987C288.838 228.987 324.158 193.667 324.158 150.098C324.158 106.53 288.838 71.2101 245.269 71.2101C201.701 71.2101 166.381 106.53 166.381 150.098C166.381 193.667 201.701 228.987 245.269 228.987Z" fill="#FCF1E6" stroke="#DFC298" stroke-width="0.75" stroke-miterlimit="10"/>
<path d="M245.269 215.006C281.117 215.006 310.176 185.946 310.176 150.098C310.176 114.251 281.117 85.1914 245.269 85.1914C209.422 85.1914 180.362 114.251 180.362 150.098C180.362 185.946 209.422 215.006 245.269 215.006Z" fill="#FCF1E6" stroke="#DFC298" stroke-width="0.75" stroke-miterlimit="10"/>
<path d="M276.488 187.814C297.302 170.578 300.202 139.734 282.966 118.92C265.731 98.1065 234.886 95.2061 214.073 112.442C193.259 129.677 190.359 160.522 207.594 181.336C224.83 202.149 255.675 205.05 276.488 187.814Z" fill="#FCF1E6" stroke="#DFC298" stroke-width="0.75" stroke-miterlimit="10"/>
<path d="M268.462 176.232C282.903 163.423 284.225 141.333 271.415 126.892C258.606 112.452 236.516 111.13 222.075 123.939C207.635 136.748 206.313 158.839 219.122 173.279C231.931 187.719 254.022 189.042 268.462 176.232Z" fill="#FCF1E6" stroke="#DFC298" stroke-width="0.75" stroke-miterlimit="10"/>
<path d="M245.269 169.071C255.748 169.071 264.242 160.577 264.242 150.098C264.242 139.62 255.748 131.126 245.269 131.126C234.791 131.126 226.297 139.62 226.297 150.098C226.297 160.577 234.791 169.071 245.269 169.071Z" fill="#FCF1E6" stroke="#DFC298" stroke-width="0.75" stroke-miterlimit="10"/>
<path d="M432.004 241.968C483.294 241.968 524.872 200.39 524.872 149.1C524.872 97.8103 483.294 56.2319 432.004 56.2319C380.714 56.2319 339.136 97.8103 339.136 149.1C339.136 200.39 380.714 241.968 432.004 241.968Z" fill="#FCF1E6" stroke="#DFC298" stroke-width="0.75" stroke-miterlimit="10"/>
<path d="M431.005 228.987C474.574 228.987 509.894 193.667 509.894 150.098C509.894 106.53 474.574 71.2101 431.005 71.2101C387.437 71.2101 352.117 106.53 352.117 150.098C352.117 193.667 387.437 228.987 431.005 228.987Z" fill="#FCF1E6" stroke="#DFC298" stroke-width="0.75" stroke-miterlimit="10"/>
<path d="M431.005 215.006C466.853 215.006 495.912 185.946 495.912 150.098C495.912 114.251 466.853 85.1914 431.005 85.1914C395.158 85.1914 366.098 114.251 366.098 150.098C366.098 185.946 395.158 215.006 431.005 215.006Z" fill="#FCF1E6" stroke="#DFC298" stroke-width="0.75" stroke-miterlimit="10"/>
<path d="M460.743 188.971C482.215 172.562 486.321 141.853 469.912 120.38C453.503 98.9073 422.794 94.802 401.321 111.211C379.849 127.619 375.743 158.328 392.152 179.801C408.561 201.274 439.27 205.379 460.743 188.971Z" fill="#FCF1E6" stroke="#DFC298" stroke-width="0.75" stroke-miterlimit="10"/>
<path d="M453.48 176.847C468.26 164.431 470.177 142.385 457.761 127.605C445.346 112.825 423.299 110.908 408.519 123.323C393.739 135.739 391.822 157.785 404.238 172.565C416.653 187.345 438.7 189.262 453.48 176.847Z" fill="#FCF1E6" stroke="#DFC298" stroke-width="0.75" stroke-miterlimit="10"/>
<path d="M-31.484 294.792C19.8056 294.792 61.384 253.213 61.384 201.924C61.384 150.634 19.8056 109.056 -31.484 109.056C-82.7736 109.056 -124.352 150.634 -124.352 201.924C-124.352 253.213 -82.7736 294.792 -31.484 294.792Z" fill="#FCF1E6" stroke="#DFC298" stroke-width="0.75" stroke-miterlimit="10"/>
<path d="M-32.4826 281.811C11.0863 281.811 46.4058 246.491 46.4058 202.922C46.4058 159.354 11.0863 124.034 -32.4826 124.034C-76.0514 124.034 -111.371 159.354 -111.371 202.922C-111.371 246.491 -76.0514 281.811 -32.4826 281.811Z" fill="#FCF1E6" stroke="#DFC298" stroke-width="0.75" stroke-miterlimit="10"/>
<path d="M-32.4825 267.83C3.36465 267.83 32.4245 238.77 32.4245 202.922C32.4245 167.075 3.36465 138.015 -32.4825 138.015C-68.3297 138.015 -97.3896 167.075 -97.3896 202.922C-97.3896 238.77 -68.3297 267.83 -32.4825 267.83Z" fill="#FCF1E6" stroke="#DFC298" stroke-width="0.75" stroke-miterlimit="10"/>
<path d="M2.11338 237.521C21.2217 218.413 21.2217 187.432 2.11338 168.324C-16.9949 149.215 -47.9756 149.215 -67.0839 168.324C-86.1922 187.432 -86.1922 218.413 -67.0839 237.521C-47.9756 256.629 -16.9949 256.629 2.11338 237.521Z" fill="#FCF1E6" stroke="#DFC298" stroke-width="0.75" stroke-miterlimit="10"/>
<path d="M-7.77161 227.636C5.87738 213.987 5.87738 191.858 -7.77161 178.209C-21.4206 164.56 -43.55 164.56 -57.199 178.209C-70.8479 191.858 -70.8479 213.987 -57.199 227.636C-43.55 241.285 -21.4206 241.285 -7.77161 227.636Z" fill="#FCF1E6" stroke="#DFC298" stroke-width="0.75" stroke-miterlimit="10"/>
<path d="M154.252 294.792C205.542 294.792 247.12 253.213 247.12 201.924C247.12 150.634 205.542 109.056 154.252 109.056C102.962 109.056 61.384 150.634 61.384 201.924C61.384 253.213 102.962 294.792 154.252 294.792Z" fill="#FCF1E6" stroke="#DFC298" stroke-width="0.75" stroke-miterlimit="10"/>
<path d="M153.253 281.811C196.822 281.811 232.142 246.491 232.142 202.922C232.142 159.354 196.822 124.034 153.253 124.034C109.685 124.034 74.3651 159.354 74.3651 202.922C74.3651 246.491 109.685 281.811 153.253 281.811Z" fill="#FCF1E6" stroke="#DFC298" stroke-width="0.75" stroke-miterlimit="10"/>
<path d="M153.253 267.83C189.101 267.83 218.161 238.77 218.161 202.922C218.161 167.075 189.101 138.015 153.253 138.015C117.406 138.015 88.3464 167.075 88.3464 202.922C88.3464 238.77 117.406 267.83 153.253 267.83Z" fill="#FCF1E6" stroke="#DFC298" stroke-width="0.75" stroke-miterlimit="10"/>
<path d="M185.188 239.989C205.653 222.342 207.938 191.447 190.291 170.982C172.645 150.517 141.75 148.232 121.285 165.879C100.82 183.525 98.5352 214.42 116.182 234.885C133.828 255.35 164.723 257.635 185.188 239.989Z" fill="#FCF1E6" stroke="#DFC298" stroke-width="0.75" stroke-miterlimit="10"/>
<path d="M176.799 228.758C191.065 215.756 192.09 193.65 179.088 179.384C166.086 165.117 143.98 164.092 129.713 177.094C115.446 190.097 114.421 212.203 127.424 226.469C140.426 240.736 162.532 241.761 176.799 228.758Z" fill="#FCF1E6" stroke="#DFC298" stroke-width="0.75" stroke-miterlimit="10"/>
<path d="M153.253 221.895C163.732 221.895 172.226 213.401 172.226 202.922C172.226 192.444 163.732 183.95 153.253 183.95C142.775 183.95 134.281 192.444 134.281 202.922C134.281 213.401 142.775 221.895 153.253 221.895Z" fill="#FCF1E6" stroke="#DFC298" stroke-width="0.75" stroke-miterlimit="10"/>
<path d="M339.988 294.792C391.278 294.792 432.856 253.213 432.856 201.924C432.856 150.634 391.278 109.056 339.988 109.056C288.698 109.056 247.12 150.634 247.12 201.924C247.12 253.213 288.698 294.792 339.988 294.792Z" fill="#FCF1E6" stroke="#DFC298" stroke-width="0.75" stroke-miterlimit="10"/>
<path d="M338.989 281.811C382.558 281.811 417.878 246.491 417.878 202.922C417.878 159.354 382.558 124.034 338.989 124.034C295.421 124.034 260.101 159.354 260.101 202.922C260.101 246.491 295.421 281.811 338.989 281.811Z" fill="#FCF1E6" stroke="#DFC298" stroke-width="0.75" stroke-miterlimit="10"/>
<path d="M338.989 267.83C374.837 267.83 403.896 238.77 403.896 202.922C403.896 167.075 374.837 138.015 338.989 138.015C303.142 138.015 274.082 167.075 274.082 202.922C274.082 238.77 303.142 267.83 338.989 267.83Z" fill="#FCF1E6" stroke="#DFC298" stroke-width="0.75" stroke-miterlimit="10"/>
<path d="M369.433 241.187C390.584 224.368 394.096 193.586 377.276 172.435C360.457 151.284 329.676 147.772 308.524 164.592C287.373 181.411 283.861 212.192 300.681 233.344C317.5 254.495 348.282 258.007 369.433 241.187Z" fill="#FCF1E6" stroke="#DFC298" stroke-width="0.75" stroke-miterlimit="10"/>
<path d="M361.824 229.387C376.438 216.777 378.063 194.707 365.452 180.093C352.842 165.478 330.772 163.854 316.158 176.465C301.544 189.075 299.919 211.145 312.53 225.759C325.14 240.373 347.21 241.998 361.824 229.387Z" fill="#FCF1E6" stroke="#DFC298" stroke-width="0.75" stroke-miterlimit="10"/>
<path d="M338.989 221.895C349.468 221.895 357.962 213.401 357.962 202.922C357.962 192.444 349.468 183.95 338.989 183.95C328.511 183.95 320.017 192.444 320.017 202.922C320.017 213.401 328.511 221.895 338.989 221.895Z" fill="#FCF1E6" stroke="#DFC298" stroke-width="0.75" stroke-miterlimit="10"/>
<path d="M60.5319 349.32C111.822 349.32 153.4 307.742 153.4 256.452C153.4 205.162 111.822 163.584 60.5319 163.584C9.24236 163.584 -32.3361 205.162 -32.3361 256.452C-32.3361 307.742 9.24236 349.32 60.5319 349.32Z" fill="#FCF1E6" stroke="#DFC298" stroke-width="0.75" stroke-miterlimit="10"/>
<path d="M59.5334 336.339C103.102 336.339 138.422 301.019 138.422 257.451C138.422 213.882 103.102 178.562 59.5334 178.562C15.9646 178.562 -19.355 213.882 -19.355 257.451C-19.355 301.019 15.9646 336.339 59.5334 336.339Z" fill="#FCF1E6" stroke="#DFC298" stroke-width="0.75" stroke-miterlimit="10"/>
<path d="M59.5334 322.358C95.3806 322.358 124.441 293.298 124.441 257.451C124.441 221.603 95.3806 192.543 59.5334 192.543C23.6863 192.543 -5.37363 221.603 -5.37363 257.451C-5.37363 293.298 23.6863 322.358 59.5334 322.358Z" fill="#FCF1E6" stroke="#DFC298" stroke-width="0.75" stroke-miterlimit="10"/>
<path d="M94.1283 292.049C113.237 272.941 113.237 241.96 94.1283 222.852C75.02 203.744 44.0393 203.744 24.931 222.852C5.82271 241.96 5.82271 272.941 24.931 292.049C44.0393 311.158 75.02 311.158 94.1283 292.049Z" fill="#FCF1E6" stroke="#DFC298" stroke-width="0.75" stroke-miterlimit="10"/>
<path d="M83.4116 282.962C97.4968 269.765 98.2166 247.648 85.0193 233.563C71.822 219.477 49.7052 218.758 35.62 231.955C21.5347 245.152 20.8149 267.269 34.0122 281.354C47.2095 295.439 69.3264 296.159 83.4116 282.962Z" fill="#FCF1E6" stroke="#DFC298" stroke-width="0.75" stroke-miterlimit="10"/>
<path d="M59.5334 276.423C70.0116 276.423 78.5058 267.929 78.5058 257.45C78.5058 246.972 70.0116 238.478 59.5334 238.478C49.0553 238.478 40.5611 246.972 40.5611 257.45C40.5611 267.929 49.0553 276.423 59.5334 276.423Z" fill="#FCF1E6" stroke="#DFC298" stroke-width="0.75" stroke-miterlimit="10"/>
<path d="M246.268 349.32C297.557 349.32 339.136 307.742 339.136 256.452C339.136 205.162 297.557 163.584 246.268 163.584C194.978 163.584 153.4 205.162 153.4 256.452C153.4 307.742 194.978 349.32 246.268 349.32Z" fill="#FCF1E6" stroke="#DFC298" stroke-width="0.75" stroke-miterlimit="10"/>
<path d="M245.269 336.339C288.838 336.339 324.158 301.019 324.158 257.451C324.158 213.882 288.838 178.562 245.269 178.562C201.701 178.562 166.381 213.882 166.381 257.451C166.381 301.019 201.701 336.339 245.269 336.339Z" fill="#FCF1E6" stroke="#DFC298" stroke-width="0.75" stroke-miterlimit="10"/>
<path d="M245.269 322.358C281.117 322.358 310.176 293.298 310.176 257.451C310.176 221.603 281.117 192.543 245.269 192.543C209.422 192.543 180.362 221.603 180.362 257.451C180.362 293.298 209.422 322.358 245.269 322.358Z" fill="#FCF1E6" stroke="#DFC298" stroke-width="0.75" stroke-miterlimit="10"/>
<path d="M276.483 295.17C297.296 277.935 300.197 247.09 282.961 226.276C265.726 205.463 234.881 202.562 214.067 219.798C193.254 237.033 190.353 267.878 207.589 288.692C224.824 309.505 255.669 312.406 276.483 295.17Z" fill="#FCF1E6" stroke="#DFC298" stroke-width="0.75" stroke-miterlimit="10"/>
<path d="M268.465 283.583C282.905 270.774 284.227 248.684 271.418 234.243C258.609 219.803 236.518 218.481 222.078 231.29C207.638 244.099 206.315 266.19 219.125 280.63C231.934 295.07 254.024 296.393 268.465 283.583Z" fill="#FCF1E6" stroke="#DFC298" stroke-width="0.75" stroke-miterlimit="10"/>
<path d="M245.269 276.423C255.748 276.423 264.242 267.929 264.242 257.45C264.242 246.972 255.748 238.478 245.269 238.478C234.791 238.478 226.297 246.972 226.297 257.45C226.297 267.929 234.791 276.423 245.269 276.423Z" fill="#FCF1E6" stroke="#DFC298" stroke-width="0.75" stroke-miterlimit="10"/>
<path d="M432.004 349.32C483.294 349.32 524.872 307.742 524.872 256.452C524.872 205.162 483.294 163.584 432.004 163.584C380.714 163.584 339.136 205.162 339.136 256.452C339.136 307.742 380.714 349.32 432.004 349.32Z" fill="#FCF1E6" stroke="#DFC298" stroke-width="0.75" stroke-miterlimit="10"/>
<path d="M431.005 336.339C474.574 336.339 509.894 301.019 509.894 257.451C509.894 213.882 474.574 178.562 431.005 178.562C387.437 178.562 352.117 213.882 352.117 257.451C352.117 301.019 387.437 336.339 431.005 336.339Z" fill="#FCF1E6" stroke="#DFC298" stroke-width="0.75" stroke-miterlimit="10"/>
<path d="M431.005 322.358C466.853 322.358 495.912 293.298 495.912 257.451C495.912 221.603 466.853 192.543 431.005 192.543C395.158 192.543 366.098 221.603 366.098 257.451C366.098 293.298 395.158 322.358 431.005 322.358Z" fill="#FCF1E6" stroke="#DFC298" stroke-width="0.75" stroke-miterlimit="10"/>
<path d="M460.745 296.327C482.218 279.918 486.323 249.209 469.914 227.736C453.506 206.263 422.797 202.158 401.324 218.566C379.851 234.975 375.745 265.684 392.154 287.157C408.563 308.63 439.272 312.735 460.745 296.327Z" fill="#FCF1E6" stroke="#DFC298" stroke-width="0.75" stroke-miterlimit="10"/>
<path d="M453.482 284.197C468.262 271.782 470.179 249.735 457.763 234.955C445.348 220.175 423.301 218.258 408.521 230.674C393.741 243.089 391.824 265.136 404.24 279.916C416.655 294.696 438.702 296.613 453.482 284.197Z" fill="#FCF1E6" stroke="#DFC298" stroke-width="0.75" stroke-miterlimit="10"/>
<path d="M-31.484 402.144C19.8056 402.144 61.384 360.566 61.384 309.276C61.384 257.986 19.8056 216.408 -31.484 216.408C-82.7736 216.408 -124.352 257.986 -124.352 309.276C-124.352 360.566 -82.7736 402.144 -31.484 402.144Z" fill="#FCF1E6" stroke="#DFC298" stroke-width="0.75" stroke-miterlimit="10"/>
<path d="M-32.4826 389.163C11.0863 389.163 46.4058 353.843 46.4058 310.274C46.4058 266.706 11.0863 231.386 -32.4826 231.386C-76.0514 231.386 -111.371 266.706 -111.371 310.274C-111.371 353.843 -76.0514 389.163 -32.4826 389.163Z" fill="#FCF1E6" stroke="#DFC298" stroke-width="0.75" stroke-miterlimit="10"/>
<path d="M-32.4825 375.182C3.36465 375.182 32.4245 346.122 32.4245 310.274C32.4245 274.427 3.36465 245.367 -32.4825 245.367C-68.3297 245.367 -97.3896 274.427 -97.3896 310.274C-97.3896 346.122 -68.3297 375.182 -32.4825 375.182Z" fill="#FCF1E6" stroke="#DFC298" stroke-width="0.75" stroke-miterlimit="10"/>
<path d="M2.11268 344.872C21.221 325.764 21.221 294.783 2.11268 275.675C-16.9956 256.567 -47.9763 256.567 -67.0846 275.675C-86.1929 294.783 -86.1929 325.764 -67.0846 344.872C-47.9763 363.981 -16.9956 363.981 2.11268 344.872Z" fill="#FCF1E6" stroke="#DFC298" stroke-width="0.75" stroke-miterlimit="10"/>
<path d="M-7.77228 334.987C5.8767 321.338 5.8767 299.209 -7.77228 285.56C-21.4213 271.911 -43.5506 271.911 -57.1996 285.56C-70.8486 299.209 -70.8486 321.338 -57.1996 334.987C-43.5506 348.636 -21.4213 348.636 -7.77228 334.987Z" fill="#FCF1E6" stroke="#DFC298" stroke-width="0.75" stroke-miterlimit="10"/>
<path d="M154.252 402.144C205.542 402.144 247.12 360.566 247.12 309.276C247.12 257.986 205.542 216.408 154.252 216.408C102.962 216.408 61.384 257.986 61.384 309.276C61.384 360.566 102.962 402.144 154.252 402.144Z" fill="#FCF1E6" stroke="#DFC298" stroke-width="0.75" stroke-miterlimit="10"/>
<path d="M153.253 389.163C196.822 389.163 232.142 353.843 232.142 310.274C232.142 266.706 196.822 231.386 153.253 231.386C109.685 231.386 74.3651 266.706 74.3651 310.274C74.3651 353.843 109.685 389.163 153.253 389.163Z" fill="#FCF1E6" stroke="#DFC298" stroke-width="0.75" stroke-miterlimit="10"/>
<path d="M153.253 375.182C189.101 375.182 218.161 346.122 218.161 310.274C218.161 274.427 189.101 245.367 153.253 245.367C117.406 245.367 88.3464 274.427 88.3464 310.274C88.3464 346.122 117.406 375.182 153.253 375.182Z" fill="#FCF1E6" stroke="#DFC298" stroke-width="0.75" stroke-miterlimit="10"/>
<path d="M185.184 347.338C205.648 329.692 207.933 298.797 190.287 278.332C172.641 257.867 141.745 255.582 121.281 273.228C100.816 290.875 98.5308 321.77 116.177 342.235C133.823 362.7 164.719 364.985 185.184 347.338Z" fill="#FCF1E6" stroke="#DFC298" stroke-width="0.75" stroke-miterlimit="10"/>
<path d="M176.798 336.111C191.065 323.109 192.09 301.003 179.087 286.737C166.085 272.47 143.979 271.445 129.712 284.447C115.446 297.45 114.421 319.556 127.423 333.822C140.425 348.089 162.531 349.114 176.798 336.111Z" fill="#FCF1E6" stroke="#DFC298" stroke-width="0.75" stroke-miterlimit="10"/>
<path d="M153.253 329.247C163.732 329.247 172.226 320.753 172.226 310.274C172.226 299.796 163.732 291.302 153.253 291.302C142.775 291.302 134.281 299.796 134.281 310.274C134.281 320.753 142.775 329.247 153.253 329.247Z" fill="#FCF1E6" stroke="#DFC298" stroke-width="0.75" stroke-miterlimit="10"/>
<path d="M339.988 402.144C391.278 402.144 432.856 360.566 432.856 309.276C432.856 257.986 391.278 216.408 339.988 216.408C288.698 216.408 247.12 257.986 247.12 309.276C247.12 360.566 288.698 402.144 339.988 402.144Z" fill="#FCF1E6" stroke="#DFC298" stroke-width="0.75" stroke-miterlimit="10"/>
<path d="M338.989 389.163C382.558 389.163 417.878 353.843 417.878 310.274C417.878 266.706 382.558 231.386 338.989 231.386C295.421 231.386 260.101 266.706 260.101 310.274C260.101 353.843 295.421 389.163 338.989 389.163Z" fill="#FCF1E6" stroke="#DFC298" stroke-width="0.75" stroke-miterlimit="10"/>
<path d="M338.989 375.182C374.837 375.182 403.896 346.122 403.896 310.274C403.896 274.427 374.837 245.367 338.989 245.367C303.142 245.367 274.082 274.427 274.082 310.274C274.082 346.122 303.142 375.182 338.989 375.182Z" fill="#FCF1E6" stroke="#DFC298" stroke-width="0.75" stroke-miterlimit="10"/>
<path d="M369.438 348.535C390.589 331.716 394.101 300.935 377.281 279.783C360.462 258.632 329.68 255.12 308.529 271.94C287.378 288.759 283.866 319.541 300.686 340.692C317.505 361.843 348.286 365.355 369.438 348.535Z" fill="#FCF1E6" stroke="#DFC298" stroke-width="0.75" stroke-miterlimit="10"/>
<path d="M361.824 336.74C376.438 324.129 378.062 302.059 365.452 287.445C352.841 272.831 330.772 271.207 316.157 283.817C301.543 296.428 299.919 318.498 312.53 333.112C325.14 347.726 347.21 349.35 361.824 336.74Z" fill="#FCF1E6" stroke="#DFC298" stroke-width="0.75" stroke-miterlimit="10"/>
<path d="M338.989 329.247C349.468 329.247 357.962 320.753 357.962 310.274C357.962 299.796 349.468 291.302 338.989 291.302C328.511 291.302 320.017 299.796 320.017 310.274C320.017 320.753 328.511 329.247 338.989 329.247Z" fill="#FCF1E6" stroke="#DFC298" stroke-width="0.75" stroke-miterlimit="10"/>
<path d="M60.5319 456.672C111.822 456.672 153.4 415.094 153.4 363.804C153.4 312.514 111.822 270.936 60.5319 270.936C9.24236 270.936 -32.3361 312.514 -32.3361 363.804C-32.3361 415.094 9.24236 456.672 60.5319 456.672Z" fill="#FCF1E6" stroke="#DFC298" stroke-width="0.75" stroke-miterlimit="10"/>
<path d="M59.5334 443.691C103.102 443.691 138.422 408.371 138.422 364.803C138.422 321.234 103.102 285.914 59.5334 285.914C15.9646 285.914 -19.355 321.234 -19.355 364.803C-19.355 408.371 15.9646 443.691 59.5334 443.691Z" fill="#FCF1E6" stroke="#DFC298" stroke-width="0.75" stroke-miterlimit="10"/>
<path d="M59.5334 429.71C95.3806 429.71 124.441 400.65 124.441 364.803C124.441 328.955 95.3806 299.896 59.5334 299.896C23.6863 299.896 -5.37363 328.955 -5.37363 364.803C-5.37363 400.65 23.6863 429.71 59.5334 429.71Z" fill="#FCF1E6" stroke="#DFC298" stroke-width="0.75" stroke-miterlimit="10"/>
<path d="M94.1277 399.401C113.236 380.292 113.236 349.312 94.1277 330.203C75.0193 311.095 44.0387 311.095 24.9303 330.203C5.82204 349.312 5.82204 380.292 24.9303 399.401C44.0387 418.509 75.0193 418.509 94.1277 399.401Z" fill="#FCF1E6" stroke="#DFC298" stroke-width="0.75" stroke-miterlimit="10"/>
<path d="M83.4067 390.312C97.4919 377.115 98.2117 354.998 85.0144 340.912C71.8171 326.827 49.7002 326.107 35.615 339.305C21.5298 352.502 20.81 374.619 34.0073 388.704C47.2046 402.789 69.3214 403.509 83.4067 390.312Z" fill="#FCF1E6" stroke="#DFC298" stroke-width="0.75" stroke-miterlimit="10"/>
<path d="M59.5334 383.775C70.0116 383.775 78.5058 375.281 78.5058 364.803C78.5058 354.324 70.0116 345.83 59.5334 345.83C49.0553 345.83 40.5611 354.324 40.5611 364.803C40.5611 375.281 49.0553 383.775 59.5334 383.775Z" fill="#FCF1E6" stroke="#DFC298" stroke-width="0.75" stroke-miterlimit="10"/>
<path d="M246.268 456.672C297.557 456.672 339.136 415.094 339.136 363.804C339.136 312.514 297.557 270.936 246.268 270.936C194.978 270.936 153.4 312.514 153.4 363.804C153.4 415.094 194.978 456.672 246.268 456.672Z" fill="#FCF1E6" stroke="#DFC298" stroke-width="0.75" stroke-miterlimit="10"/>
<path d="M245.269 443.691C288.838 443.691 324.158 408.371 324.158 364.803C324.158 321.234 288.838 285.914 245.269 285.914C201.701 285.914 166.381 321.234 166.381 364.803C166.381 408.371 201.701 443.691 245.269 443.691Z" fill="#FCF1E6" stroke="#DFC298" stroke-width="0.75" stroke-miterlimit="10"/>
<path d="M245.269 429.71C281.117 429.71 310.176 400.65 310.176 364.803C310.176 328.955 281.117 299.896 245.269 299.896C209.422 299.896 180.362 328.955 180.362 364.803C180.362 400.65 209.422 429.71 245.269 429.71Z" fill="#FCF1E6" stroke="#DFC298" stroke-width="0.75" stroke-miterlimit="10"/>
<path d="M276.478 402.526C297.291 385.291 300.192 354.446 282.956 333.632C265.72 312.819 234.876 309.918 214.062 327.154C193.249 344.389 190.348 375.234 207.584 396.048C224.819 416.861 255.664 419.762 276.478 402.526Z" fill="#FCF1E6" stroke="#DFC298" stroke-width="0.75" stroke-miterlimit="10"/>
<path d="M268.467 390.934C282.908 378.125 284.23 356.035 271.42 341.595C258.611 327.154 236.521 325.832 222.081 338.641C207.64 351.45 206.318 373.541 219.127 387.981C231.937 402.422 254.027 403.744 268.467 390.934Z" fill="#FCF1E6" stroke="#DFC298" stroke-width="0.75" stroke-miterlimit="10"/>
<path d="M245.269 383.775C255.748 383.775 264.242 375.281 264.242 364.803C264.242 354.324 255.748 345.83 245.269 345.83C234.791 345.83 226.297 354.324 226.297 364.803C226.297 375.281 234.791 383.775 245.269 383.775Z" fill="#FCF1E6" stroke="#DFC298" stroke-width="0.75" stroke-miterlimit="10"/>
<path d="M432.004 456.672C483.294 456.672 524.872 415.094 524.872 363.804C524.872 312.514 483.294 270.936 432.004 270.936C380.714 270.936 339.136 312.514 339.136 363.804C339.136 415.094 380.714 456.672 432.004 456.672Z" fill="#FCF1E6" stroke="#DFC298" stroke-width="0.75" stroke-miterlimit="10"/>
<path d="M431.005 443.691C474.574 443.691 509.894 408.371 509.894 364.803C509.894 321.234 474.574 285.914 431.005 285.914C387.437 285.914 352.117 321.234 352.117 364.803C352.117 408.371 387.437 443.691 431.005 443.691Z" fill="#FCF1E6" stroke="#DFC298" stroke-width="0.75" stroke-miterlimit="10"/>
<path d="M431.005 429.71C466.853 429.71 495.912 400.65 495.912 364.803C495.912 328.955 466.853 299.896 431.005 299.896C395.158 299.896 366.098 328.955 366.098 364.803C366.098 400.65 395.158 429.71 431.005 429.71Z" fill="#FCF1E6" stroke="#DFC298" stroke-width="0.75" stroke-miterlimit="10"/>
<path d="M460.747 403.683C482.22 387.274 486.325 356.565 469.916 335.092C453.508 313.619 422.799 309.514 401.326 325.922C379.853 342.331 375.748 373.04 392.156 394.513C408.565 415.986 439.274 420.091 460.747 403.683Z" fill="#FCF1E6" stroke="#DFC298" stroke-width="0.75" stroke-miterlimit="10"/>
<path d="M453.484 391.548C468.264 379.132 470.181 357.086 457.765 342.306C445.35 327.526 423.303 325.609 408.523 338.024C393.743 350.44 391.826 372.486 404.242 387.267C416.657 402.047 438.704 403.964 453.484 391.548Z" fill="#FCF1E6" stroke="#DFC298" stroke-width="0.75" stroke-miterlimit="10"/>
<path d="M-31.484 509.496C19.8056 509.496 61.384 467.918 61.384 416.628C61.384 365.338 19.8056 323.76 -31.484 323.76C-82.7736 323.76 -124.352 365.338 -124.352 416.628C-124.352 467.918 -82.7736 509.496 -31.484 509.496Z" fill="#FCF1E6" stroke="#DFC298" stroke-width="0.75" stroke-miterlimit="10"/>
<path d="M-32.4826 496.515C11.0863 496.515 46.4058 461.195 46.4058 417.627C46.4058 374.058 11.0863 338.738 -32.4826 338.738C-76.0514 338.738 -111.371 374.058 -111.371 417.627C-111.371 461.195 -76.0514 496.515 -32.4826 496.515Z" fill="#FCF1E6" stroke="#DFC298" stroke-width="0.75" stroke-miterlimit="10"/>
<path d="M-32.4825 482.534C3.36465 482.534 32.4245 453.474 32.4245 417.627C32.4245 381.779 3.36465 352.719 -32.4825 352.719C-68.3297 352.719 -97.3896 381.779 -97.3896 417.627C-97.3896 453.474 -68.3297 482.534 -32.4825 482.534Z" fill="#FCF1E6" stroke="#DFC298" stroke-width="0.75" stroke-miterlimit="10"/>
<path d="M2.11186 452.224C21.2202 433.115 21.2202 402.135 2.11186 383.026C-16.9965 363.918 -47.9771 363.918 -67.0854 383.026C-86.1938 402.135 -86.1938 433.115 -67.0855 452.224C-47.9772 471.332 -16.9965 471.332 2.11186 452.224Z" fill="#FCF1E6" stroke="#DFC298" stroke-width="0.75" stroke-miterlimit="10"/>
<path d="M-7.77315 442.339C5.87583 428.69 5.87585 406.56 -7.77313 392.911C-21.4221 379.262 -43.5515 379.262 -57.2005 392.911C-70.8495 406.56 -70.8495 428.69 -57.2005 442.339C-43.5515 455.988 -21.4221 455.988 -7.77315 442.339Z" fill="#FCF1E6" stroke="#DFC298" stroke-width="0.75" stroke-miterlimit="10"/>
<path d="M154.252 509.496C205.542 509.496 247.12 467.918 247.12 416.628C247.12 365.338 205.542 323.76 154.252 323.76C102.962 323.76 61.384 365.338 61.384 416.628C61.384 467.918 102.962 509.496 154.252 509.496Z" fill="#FCF1E6" stroke="#DFC298" stroke-width="0.75" stroke-miterlimit="10"/>
<path d="M153.253 496.515C196.822 496.515 232.142 461.195 232.142 417.627C232.142 374.058 196.822 338.738 153.253 338.738C109.685 338.738 74.3651 374.058 74.3651 417.627C74.3651 461.195 109.685 496.515 153.253 496.515Z" fill="#FCF1E6" stroke="#DFC298" stroke-width="0.75" stroke-miterlimit="10"/>
<path d="M153.253 482.534C189.101 482.534 218.161 453.474 218.161 417.627C218.161 381.779 189.101 352.719 153.253 352.719C117.406 352.719 88.3464 381.779 88.3464 417.627C88.3464 453.474 117.406 482.534 153.253 482.534Z" fill="#FCF1E6" stroke="#DFC298" stroke-width="0.75" stroke-miterlimit="10"/>
<path d="M185.179 454.688C205.644 437.041 207.929 406.146 190.283 385.681C172.636 365.216 141.741 362.932 121.276 380.578C100.811 398.224 98.5263 429.119 116.173 449.584C133.819 470.049 164.714 472.334 185.179 454.688Z" fill="#FCF1E6" stroke="#DFC298" stroke-width="0.75" stroke-miterlimit="10"/>
<path d="M176.797 443.464C191.064 430.462 192.089 408.356 179.087 394.089C166.084 379.823 143.978 378.798 129.712 391.8C115.445 404.803 114.42 426.908 127.423 441.175C140.425 455.442 162.531 456.467 176.797 443.464Z" fill="#FCF1E6" stroke="#DFC298" stroke-width="0.75" stroke-miterlimit="10"/>
<path d="M153.253 436.599C163.732 436.599 172.226 428.105 172.226 417.627C172.226 407.148 163.732 398.654 153.253 398.654C142.775 398.654 134.281 407.148 134.281 417.627C134.281 428.105 142.775 436.599 153.253 436.599Z" fill="#FCF1E6" stroke="#DFC298" stroke-width="0.75" stroke-miterlimit="10"/>
<path d="M339.988 509.496C391.278 509.496 432.856 467.918 432.856 416.628C432.856 365.338 391.278 323.76 339.988 323.76C288.698 323.76 247.12 365.338 247.12 416.628C247.12 467.918 288.698 509.496 339.988 509.496Z" fill="#FCF1E6" stroke="#DFC298" stroke-width="0.75" stroke-miterlimit="10"/>
<path d="M338.989 496.515C382.558 496.515 417.878 461.195 417.878 417.627C417.878 374.058 382.558 338.738 338.989 338.738C295.421 338.738 260.101 374.058 260.101 417.627C260.101 461.195 295.421 496.515 338.989 496.515Z" fill="#FCF1E6" stroke="#DFC298" stroke-width="0.75" stroke-miterlimit="10"/>
<path d="M338.989 482.534C374.837 482.534 403.896 453.474 403.896 417.627C403.896 381.779 374.837 352.719 338.989 352.719C303.142 352.719 274.082 381.779 274.082 417.627C274.082 453.474 303.142 482.534 338.989 482.534Z" fill="#FCF1E6" stroke="#DFC298" stroke-width="0.75" stroke-miterlimit="10"/>
<path d="M369.443 455.884C390.594 439.064 394.106 408.283 377.286 387.132C360.467 365.981 329.685 362.469 308.534 379.288C287.383 396.108 283.871 426.889 300.691 448.04C317.51 469.192 348.291 472.703 369.443 455.884Z" fill="#FCF1E6" stroke="#DFC298" stroke-width="0.75" stroke-miterlimit="10"/>
<path d="M361.824 444.092C376.438 431.482 378.062 409.412 365.451 394.798C352.841 380.184 330.771 378.559 316.157 391.17C301.543 403.78 299.919 425.85 312.529 440.464C325.14 455.078 347.209 456.703 361.824 444.092Z" fill="#FCF1E6" stroke="#DFC298" stroke-width="0.75" stroke-miterlimit="10"/>
<path d="M338.989 436.599C349.468 436.599 357.962 428.105 357.962 417.627C357.962 407.148 349.468 398.654 338.989 398.654C328.511 398.654 320.017 407.148 320.017 417.627C320.017 428.105 328.511 436.599 338.989 436.599Z" fill="#FCF1E6" stroke="#DFC298" stroke-width="0.75" stroke-miterlimit="10"/>
<path d="M60.5319 564.024C111.822 564.024 153.4 522.446 153.4 471.156C153.4 419.866 111.822 378.288 60.5319 378.288C9.24236 378.288 -32.3361 419.866 -32.3361 471.156C-32.3361 522.446 9.24236 564.024 60.5319 564.024Z" fill="#FCF1E6" stroke="#DFC298" stroke-width="0.75" stroke-miterlimit="10"/>
<path d="M59.5334 551.043C103.102 551.043 138.422 515.723 138.422 472.155C138.422 428.586 103.102 393.266 59.5334 393.266C15.9646 393.266 -19.355 428.586 -19.355 472.155C-19.355 515.723 15.9646 551.043 59.5334 551.043Z" fill="#FCF1E6" stroke="#DFC298" stroke-width="0.75" stroke-miterlimit="10"/>
<path d="M59.5334 537.062C95.3806 537.062 124.441 508.002 124.441 472.155C124.441 436.307 95.3806 407.247 59.5334 407.247C23.6863 407.247 -5.37363 436.307 -5.37363 472.155C-5.37363 508.002 23.6863 537.062 59.5334 537.062Z" fill="#FCF1E6" stroke="#DFC298" stroke-width="0.75" stroke-miterlimit="10"/>
<path d="M94.1268 506.752C113.235 487.644 113.235 456.663 94.1268 437.555C75.0185 418.446 44.0378 418.446 24.9295 437.555C5.82118 456.663 5.82118 487.644 24.9295 506.752C44.0378 525.86 75.0185 525.86 94.1268 506.752Z" fill="#FCF1E6" stroke="#DFC298" stroke-width="0.75" stroke-miterlimit="10"/>
<path d="M83.4017 497.662C97.487 484.464 98.2068 462.347 85.0095 448.262C71.8122 434.177 49.6953 433.457 35.6101 446.654C21.5249 459.852 20.805 481.969 34.0023 496.054C47.1996 510.139 69.3165 510.859 83.4017 497.662Z" fill="#FCF1E6" stroke="#DFC298" stroke-width="0.75" stroke-miterlimit="10"/>
<path d="M59.5334 491.127C70.0116 491.127 78.5058 482.633 78.5058 472.154C78.5058 461.676 70.0116 453.182 59.5334 453.182C49.0553 453.182 40.5611 461.676 40.5611 472.154C40.5611 482.633 49.0553 491.127 59.5334 491.127Z" fill="#FCF1E6" stroke="#DFC298" stroke-width="0.75" stroke-miterlimit="10"/>
<path d="M246.268 564.024C297.557 564.024 339.136 522.446 339.136 471.156C339.136 419.866 297.557 378.288 246.268 378.288C194.978 378.288 153.4 419.866 153.4 471.156C153.4 522.446 194.978 564.024 246.268 564.024Z" fill="#FCF1E6" stroke="#DFC298" stroke-width="0.75" stroke-miterlimit="10"/>
<path d="M245.269 551.043C288.838 551.043 324.158 515.723 324.158 472.155C324.158 428.586 288.838 393.266 245.269 393.266C201.701 393.266 166.381 428.586 166.381 472.155C166.381 515.723 201.701 551.043 245.269 551.043Z" fill="#FCF1E6" stroke="#DFC298" stroke-width="0.75" stroke-miterlimit="10"/>
<path d="M245.269 537.062C281.117 537.062 310.176 508.002 310.176 472.155C310.176 436.307 281.117 407.247 245.269 407.247C209.422 407.247 180.362 436.307 180.362 472.155C180.362 508.002 209.422 537.062 245.269 537.062Z" fill="#FCF1E6" stroke="#DFC298" stroke-width="0.75" stroke-miterlimit="10"/>
<path d="M276.472 509.882C297.286 492.647 300.186 461.802 282.951 440.988C265.715 420.175 234.87 417.275 214.057 434.51C193.243 451.746 190.343 482.591 207.578 503.404C224.814 524.218 255.659 527.118 276.472 509.882Z" fill="#FCF1E6" stroke="#DFC298" stroke-width="0.75" stroke-miterlimit="10"/>
<path d="M268.47 498.286C282.91 485.476 284.232 463.386 271.423 448.946C258.614 434.505 236.524 433.183 222.083 445.992C207.643 458.802 206.321 480.892 219.13 495.332C231.939 509.773 254.029 511.095 268.47 498.286Z" fill="#FCF1E6" stroke="#DFC298" stroke-width="0.75" stroke-miterlimit="10"/>
<path d="M245.269 491.127C255.748 491.127 264.242 482.633 264.242 472.154C264.242 461.676 255.748 453.182 245.269 453.182C234.791 453.182 226.297 461.676 226.297 472.154C226.297 482.633 234.791 491.127 245.269 491.127Z" fill="#FCF1E6" stroke="#DFC298" stroke-width="0.75" stroke-miterlimit="10"/>
<path d="M432.004 564.024C483.294 564.024 524.872 522.446 524.872 471.156C524.872 419.866 483.294 378.288 432.004 378.288C380.714 378.288 339.136 419.866 339.136 471.156C339.136 522.446 380.714 564.024 432.004 564.024Z" fill="#FCF1E6" stroke="#DFC298" stroke-width="0.75" stroke-miterlimit="10"/>
<path d="M431.005 551.043C474.574 551.043 509.894 515.723 509.894 472.155C509.894 428.586 474.574 393.266 431.005 393.266C387.437 393.266 352.117 428.586 352.117 472.155C352.117 515.723 387.437 551.043 431.005 551.043Z" fill="#FCF1E6" stroke="#DFC298" stroke-width="0.75" stroke-miterlimit="10"/>
<path d="M431.005 537.062C466.853 537.062 495.912 508.002 495.912 472.155C495.912 436.307 466.853 407.247 431.005 407.247C395.158 407.247 366.098 436.307 366.098 472.155C366.098 508.002 395.158 537.062 431.005 537.062Z" fill="#FCF1E6" stroke="#DFC298" stroke-width="0.75" stroke-miterlimit="10"/>
<path d="M460.749 511.038C482.222 494.63 486.327 463.921 469.918 442.448C453.51 420.975 422.801 416.869 401.328 433.278C379.855 449.687 375.75 480.396 392.158 501.869C408.567 523.342 439.276 527.447 460.749 511.038Z" fill="#FCF1E6" stroke="#DFC298" stroke-width="0.75" stroke-miterlimit="10"/>
<path d="M453.486 498.899C468.266 486.483 470.183 464.437 457.767 449.657C445.351 434.876 423.305 432.96 408.525 445.375C393.745 457.791 391.828 479.837 404.243 494.617C416.659 509.397 438.705 511.314 453.486 498.899Z" fill="#FCF1E6" stroke="#DFC298" stroke-width="0.75" stroke-miterlimit="10"/>
<path d="M-31.484 616.848C19.8056 616.848 61.384 575.27 61.384 523.98C61.384 472.69 19.8056 431.112 -31.484 431.112C-82.7736 431.112 -124.352 472.69 -124.352 523.98C-124.352 575.27 -82.7736 616.848 -31.484 616.848Z" fill="#FCF1E6" stroke="#DFC298" stroke-width="0.75" stroke-miterlimit="10"/>
<path d="M-32.4826 603.867C11.0863 603.867 46.4058 568.547 46.4058 524.979C46.4058 481.41 11.0863 446.09 -32.4826 446.09C-76.0514 446.09 -111.371 481.41 -111.371 524.979C-111.371 568.547 -76.0514 603.867 -32.4826 603.867Z" fill="#FCF1E6" stroke="#DFC298" stroke-width="0.75" stroke-miterlimit="10"/>
<path d="M-32.4825 589.886C3.36465 589.886 32.4245 560.826 32.4245 524.978C32.4245 489.131 3.36465 460.071 -32.4825 460.071C-68.3297 460.071 -97.3896 489.131 -97.3896 524.978C-97.3896 560.826 -68.3297 589.886 -32.4825 589.886Z" fill="#FCF1E6" stroke="#DFC298" stroke-width="0.75" stroke-miterlimit="10"/>
<path d="M2.11119 559.575C21.2195 540.467 21.2195 509.486 2.11119 490.378C-16.9971 471.269 -47.9778 471.269 -67.0861 490.378C-86.1944 509.486 -86.1944 540.467 -67.0861 559.575C-47.9778 578.683 -16.9971 578.683 2.11119 559.575Z" fill="#FCF1E6" stroke="#DFC298" stroke-width="0.75" stroke-miterlimit="10"/>
<path d="M-7.77384 549.69C5.87515 536.041 5.87516 513.912 -7.77382 500.263C-21.4228 486.614 -43.5522 486.614 -57.2012 500.263C-70.8501 513.912 -70.8502 536.041 -57.2012 549.69C-43.5522 563.339 -21.4228 563.339 -7.77384 549.69Z" fill="#FCF1E6" stroke="#DFC298" stroke-width="0.75" stroke-miterlimit="10"/>
<path d="M154.252 616.848C205.542 616.848 247.12 575.27 247.12 523.98C247.12 472.69 205.542 431.112 154.252 431.112C102.962 431.112 61.384 472.69 61.384 523.98C61.384 575.27 102.962 616.848 154.252 616.848Z" fill="#FCF1E6" stroke="#DFC298" stroke-width="0.75" stroke-miterlimit="10"/>
<path d="M153.253 603.867C196.822 603.867 232.142 568.547 232.142 524.979C232.142 481.41 196.822 446.09 153.253 446.09C109.685 446.09 74.3651 481.41 74.3651 524.979C74.3651 568.547 109.685 603.867 153.253 603.867Z" fill="#FCF1E6" stroke="#DFC298" stroke-width="0.75" stroke-miterlimit="10"/>
<path d="M153.253 589.886C189.101 589.886 218.161 560.826 218.161 524.978C218.161 489.131 189.101 460.071 153.253 460.071C117.406 460.071 88.3464 489.131 88.3464 524.978C88.3464 560.826 117.406 589.886 153.253 589.886Z" fill="#FCF1E6" stroke="#DFC298" stroke-width="0.75" stroke-miterlimit="10"/>
<path d="M185.175 562.037C205.64 544.391 207.924 513.496 190.278 493.031C172.632 472.566 141.737 470.281 121.272 487.928C100.807 505.574 98.5219 536.469 116.168 556.934C133.815 577.399 164.71 579.684 185.175 562.037Z" fill="#FCF1E6" stroke="#DFC298" stroke-width="0.75" stroke-miterlimit="10"/>
<path d="M176.797 550.817C191.063 537.815 192.088 515.709 179.086 501.442C166.084 487.176 143.978 486.151 129.711 499.153C115.444 512.156 114.419 534.261 127.422 548.528C140.424 562.795 162.53 563.82 176.797 550.817Z" fill="#FCF1E6" stroke="#DFC298" stroke-width="0.75" stroke-miterlimit="10"/>
<path d="M153.253 543.951C163.732 543.951 172.226 535.457 172.226 524.979C172.226 514.5 163.732 506.006 153.253 506.006C142.775 506.006 134.281 514.5 134.281 524.979C134.281 535.457 142.775 543.951 153.253 543.951Z" fill="#FCF1E6" stroke="#DFC298" stroke-width="0.75" stroke-miterlimit="10"/>
<path d="M339.988 616.848C391.278 616.848 432.856 575.27 432.856 523.98C432.856 472.69 391.278 431.112 339.988 431.112C288.698 431.112 247.12 472.69 247.12 523.98C247.12 575.27 288.698 616.848 339.988 616.848Z" fill="#FCF1E6" stroke="#DFC298" stroke-width="0.75" stroke-miterlimit="10"/>
<path d="M338.989 603.867C382.558 603.867 417.878 568.547 417.878 524.979C417.878 481.41 382.558 446.09 338.989 446.09C295.421 446.09 260.101 481.41 260.101 524.979C260.101 568.547 295.421 603.867 338.989 603.867Z" fill="#FCF1E6" stroke="#DFC298" stroke-width="0.75" stroke-miterlimit="10"/>
<path d="M338.989 589.886C374.837 589.886 403.896 560.826 403.896 524.978C403.896 489.131 374.837 460.071 338.989 460.071C303.142 460.071 274.082 489.131 274.082 524.978C274.082 560.826 303.142 589.886 338.989 589.886Z" fill="#FCF1E6" stroke="#DFC298" stroke-width="0.75" stroke-miterlimit="10"/>
<path d="M369.447 563.232C390.599 546.413 394.11 515.631 377.291 494.48C360.471 473.329 329.69 469.817 308.539 486.637C287.387 503.456 283.876 534.237 300.695 555.389C317.515 576.54 348.296 580.052 369.447 563.232Z" fill="#FCF1E6" stroke="#DFC298" stroke-width="0.75" stroke-miterlimit="10"/>
<path d="M361.823 551.445C376.437 538.834 378.061 516.764 365.451 502.15C352.84 487.536 330.771 485.912 316.156 498.522C301.542 511.133 299.918 533.203 312.528 547.817C325.139 562.431 347.209 564.055 361.823 551.445Z" fill="#FCF1E6" stroke="#DFC298" stroke-width="0.75" stroke-miterlimit="10"/>
<path d="M338.989 543.951C349.468 543.951 357.962 535.457 357.962 524.979C357.962 514.5 349.468 506.006 338.989 506.006C328.511 506.006 320.017 514.5 320.017 524.979C320.017 535.457 328.511 543.951 338.989 543.951Z" fill="#FCF1E6" stroke="#DFC298" stroke-width="0.75" stroke-miterlimit="10"/>
<path d="M60.5319 671.376C111.822 671.376 153.4 629.798 153.4 578.508C153.4 527.218 111.822 485.64 60.5319 485.64C9.24236 485.64 -32.3361 527.218 -32.3361 578.508C-32.3361 629.798 9.24236 671.376 60.5319 671.376Z" fill="#FCF1E6" stroke="#DFC298" stroke-width="0.75" stroke-miterlimit="10"/>
<path d="M59.5334 658.395C103.102 658.395 138.422 623.075 138.422 579.507C138.422 535.938 103.102 500.618 59.5334 500.618C15.9646 500.618 -19.355 535.938 -19.355 579.507C-19.355 623.075 15.9646 658.395 59.5334 658.395Z" fill="#FCF1E6" stroke="#DFC298" stroke-width="0.75" stroke-miterlimit="10"/>
<path d="M59.5334 644.414C95.3806 644.414 124.441 615.354 124.441 579.507C124.441 543.659 95.3806 514.599 59.5334 514.599C23.6863 514.599 -5.37363 543.659 -5.37363 579.507C-5.37363 615.354 23.6863 644.414 59.5334 644.414Z" fill="#FCF1E6" stroke="#DFC298" stroke-width="0.75" stroke-miterlimit="10"/>
<path d="M94.1261 614.103C113.234 594.995 113.234 564.014 94.1261 544.906C75.0178 525.798 44.0371 525.798 24.9288 544.906C5.82051 564.014 5.82051 594.995 24.9288 614.103C44.0371 633.211 75.0178 633.211 94.1261 614.103Z" fill="#FCF1E6" stroke="#DFC298" stroke-width="0.75" stroke-miterlimit="10"/>
<path d="M83.3969 605.011C97.4822 591.814 98.202 569.697 85.0047 555.612C71.8074 541.527 49.6905 540.807 35.6053 554.004C21.5201 567.201 20.8003 589.318 33.9976 603.404C47.1949 617.489 69.3117 618.209 83.3969 605.011Z" fill="#FCF1E6" stroke="#DFC298" stroke-width="0.75" stroke-miterlimit="10"/>
<path d="M59.5334 598.479C70.0116 598.479 78.5058 589.985 78.5058 579.507C78.5058 569.028 70.0116 560.534 59.5334 560.534C49.0553 560.534 40.5611 569.028 40.5611 579.507C40.5611 589.985 49.0553 598.479 59.5334 598.479Z" fill="#FCF1E6" stroke="#DFC298" stroke-width="0.75" stroke-miterlimit="10"/>
<path d="M246.268 671.376C297.557 671.376 339.136 629.798 339.136 578.508C339.136 527.218 297.557 485.64 246.268 485.64C194.978 485.64 153.4 527.218 153.4 578.508C153.4 629.798 194.978 671.376 246.268 671.376Z" fill="#FCF1E6" stroke="#DFC298" stroke-width="0.75" stroke-miterlimit="10"/>
<path d="M245.269 658.395C288.838 658.395 324.158 623.075 324.158 579.507C324.158 535.938 288.838 500.618 245.269 500.618C201.701 500.618 166.381 535.938 166.381 579.507C166.381 623.075 201.701 658.395 245.269 658.395Z" fill="#FCF1E6" stroke="#DFC298" stroke-width="0.75" stroke-miterlimit="10"/>
<path d="M245.269 644.414C281.117 644.414 310.176 615.354 310.176 579.507C310.176 543.659 281.117 514.599 245.269 514.599C209.422 514.599 180.362 543.659 180.362 579.507C180.362 615.354 209.422 644.414 245.269 644.414Z" fill="#FCF1E6" stroke="#DFC298" stroke-width="0.75" stroke-miterlimit="10"/>
<path d="M276.467 617.239C297.28 600.003 300.181 569.158 282.945 548.345C265.71 527.531 234.865 524.631 214.051 541.866C193.238 559.102 190.337 589.947 207.573 610.76C224.809 631.574 255.653 634.474 276.467 617.239Z" fill="#FCF1E6" stroke="#DFC298" stroke-width="0.75" stroke-miterlimit="10"/>
<path d="M268.472 605.637C282.913 592.827 284.235 570.737 271.426 556.297C258.616 541.856 236.526 540.534 222.086 553.343C207.645 566.153 206.323 588.243 219.132 602.683C231.942 617.124 254.032 618.446 268.472 605.637Z" fill="#FCF1E6" stroke="#DFC298" stroke-width="0.75" stroke-miterlimit="10"/>
<path d="M245.269 598.479C255.748 598.479 264.242 589.985 264.242 579.507C264.242 569.028 255.748 560.534 245.269 560.534C234.791 560.534 226.297 569.028 226.297 579.507C226.297 589.985 234.791 598.479 245.269 598.479Z" fill="#FCF1E6" stroke="#DFC298" stroke-width="0.75" stroke-miterlimit="10"/>
<path d="M432.004 671.376C483.294 671.376 524.872 629.798 524.872 578.508C524.872 527.218 483.294 485.64 432.004 485.64C380.714 485.64 339.136 527.218 339.136 578.508C339.136 629.798 380.714 671.376 432.004 671.376Z" fill="#FCF1E6" stroke="#DFC298" stroke-width="0.75" stroke-miterlimit="10"/>
<path d="M431.005 658.395C474.574 658.395 509.894 623.075 509.894 579.507C509.894 535.938 474.574 500.618 431.005 500.618C387.437 500.618 352.117 535.938 352.117 579.507C352.117 623.075 387.437 658.395 431.005 658.395Z" fill="#FCF1E6" stroke="#DFC298" stroke-width="0.75" stroke-miterlimit="10"/>
<path d="M431.005 644.414C466.853 644.414 495.912 615.354 495.912 579.507C495.912 543.659 466.853 514.599 431.005 514.599C395.158 514.599 366.098 543.659 366.098 579.507C366.098 615.354 395.158 644.414 431.005 644.414Z" fill="#FCF1E6" stroke="#DFC298" stroke-width="0.75" stroke-miterlimit="10"/>
<path d="M460.751 618.394C482.224 601.986 486.329 571.277 469.921 549.804C453.512 528.331 422.803 524.225 401.33 540.634C379.857 557.043 375.752 587.752 392.16 609.225C408.569 630.698 439.278 634.803 460.751 618.394Z" fill="#FCF1E6" stroke="#DFC298" stroke-width="0.75" stroke-miterlimit="10"/>
<path d="M453.487 606.249C468.267 593.834 470.184 571.787 457.769 557.007C445.353 542.227 423.307 540.31 408.527 552.726C393.747 565.141 391.83 587.188 404.245 601.968C416.661 616.748 438.707 618.665 453.487 606.249Z" fill="#FCF1E6" stroke="#DFC298" stroke-width="0.75" stroke-miterlimit="10"/>
<path d="M-31.484 724.2C19.8056 724.2 61.384 682.622 61.384 631.332C61.384 580.042 19.8056 538.464 -31.484 538.464C-82.7736 538.464 -124.352 580.042 -124.352 631.332C-124.352 682.622 -82.7736 724.2 -31.484 724.2Z" fill="#FCF1E6" stroke="#DFC298" stroke-width="0.75" stroke-miterlimit="10"/>
<path d="M-32.4826 711.219C11.0863 711.219 46.4058 675.899 46.4058 632.33C46.4058 588.762 11.0863 553.442 -32.4826 553.442C-76.0514 553.442 -111.371 588.762 -111.371 632.33C-111.371 675.899 -76.0514 711.219 -32.4826 711.219Z" fill="#FCF1E6" stroke="#DFC298" stroke-width="0.75" stroke-miterlimit="10"/>
<path d="M-32.4825 697.238C3.36465 697.238 32.4245 668.178 32.4245 632.331C32.4245 596.483 3.36465 567.423 -32.4825 567.423C-68.3297 567.423 -97.3896 596.483 -97.3896 632.331C-97.3896 668.178 -68.3297 697.238 -32.4825 697.238Z" fill="#FCF1E6" stroke="#DFC298" stroke-width="0.75" stroke-miterlimit="10"/>
<path d="M2.11048 666.926C21.2188 647.818 21.2188 616.837 2.11048 597.729C-16.9978 578.621 -47.9785 578.621 -67.0868 597.729C-86.1951 616.837 -86.1951 647.818 -67.0868 666.926C-47.9785 686.034 -16.9978 686.034 2.11048 666.926Z" fill="#FCF1E6" stroke="#DFC298" stroke-width="0.75" stroke-miterlimit="10"/>
<path d="M-7.77451 657.041C5.87448 643.392 5.87449 621.263 -7.77449 607.614C-21.4235 593.965 -43.5528 593.965 -57.2018 607.614C-70.8508 621.263 -70.8508 643.392 -57.2018 657.041C-43.5529 670.69 -21.4235 670.69 -7.77451 657.041Z" fill="#FCF1E6" stroke="#DFC298" stroke-width="0.75" stroke-miterlimit="10"/>
<path d="M154.252 724.2C205.542 724.2 247.12 682.622 247.12 631.332C247.12 580.042 205.542 538.464 154.252 538.464C102.962 538.464 61.384 580.042 61.384 631.332C61.384 682.622 102.962 724.2 154.252 724.2Z" fill="#FCF1E6" stroke="#DFC298" stroke-width="0.75" stroke-miterlimit="10"/>
<path d="M153.253 711.219C196.822 711.219 232.142 675.899 232.142 632.33C232.142 588.762 196.822 553.442 153.253 553.442C109.685 553.442 74.3651 588.762 74.3651 632.33C74.3651 675.899 109.685 711.219 153.253 711.219Z" fill="#FCF1E6" stroke="#DFC298" stroke-width="0.75" stroke-miterlimit="10"/>
<path d="M153.253 697.238C189.101 697.238 218.161 668.178 218.161 632.331C218.161 596.483 189.101 567.423 153.253 567.423C117.406 567.423 88.3464 596.483 88.3464 632.331C88.3464 668.178 117.406 697.238 153.253 697.238Z" fill="#FCF1E6" stroke="#DFC298" stroke-width="0.75" stroke-miterlimit="10"/>
<path d="M185.17 669.387C205.635 651.741 207.92 620.845 190.274 600.381C172.627 579.916 141.732 577.631 121.267 595.277C100.802 612.923 98.5175 643.819 116.164 664.284C133.81 684.748 164.705 687.033 185.17 669.387Z" fill="#FCF1E6" stroke="#DFC298" stroke-width="0.75" stroke-miterlimit="10"/>
<path d="M176.796 658.17C191.063 645.168 192.088 623.062 179.085 608.795C166.083 594.529 143.977 593.504 129.711 606.506C115.444 619.508 114.419 641.614 127.421 655.881C140.424 670.148 162.53 671.173 176.796 658.17Z" fill="#FCF1E6" stroke="#DFC298" stroke-width="0.75" stroke-miterlimit="10"/>
<path d="M153.253 651.303C163.732 651.303 172.226 642.809 172.226 632.33C172.226 621.852 163.732 613.358 153.253 613.358C142.775 613.358 134.281 621.852 134.281 632.33C134.281 642.809 142.775 651.303 153.253 651.303Z" fill="#FCF1E6" stroke="#DFC298" stroke-width="0.75" stroke-miterlimit="10"/>
<path d="M339.988 724.2C391.278 724.2 432.856 682.622 432.856 631.332C432.856 580.042 391.278 538.464 339.988 538.464C288.698 538.464 247.12 580.042 247.12 631.332C247.12 682.622 288.698 724.2 339.988 724.2Z" fill="#FCF1E6" stroke="#DFC298" stroke-width="0.75" stroke-miterlimit="10"/>
<path d="M338.989 711.219C382.558 711.219 417.878 675.899 417.878 632.33C417.878 588.762 382.558 553.442 338.989 553.442C295.421 553.442 260.101 588.762 260.101 632.33C260.101 675.899 295.421 711.219 338.989 711.219Z" fill="#FCF1E6" stroke="#DFC298" stroke-width="0.75" stroke-miterlimit="10"/>
<path d="M338.989 697.238C374.837 697.238 403.896 668.178 403.896 632.331C403.896 596.483 374.837 567.423 338.989 567.423C303.142 567.423 274.082 596.483 274.082 632.331C274.082 668.178 303.142 697.238 338.989 697.238Z" fill="#FCF1E6" stroke="#DFC298" stroke-width="0.75" stroke-miterlimit="10"/>
<path d="M369.452 670.58C390.603 653.761 394.115 622.979 377.296 601.828C360.476 580.677 329.695 577.165 308.544 593.985C287.392 610.804 283.881 641.585 300.7 662.737C317.52 683.888 348.301 687.4 369.452 670.58Z" fill="#FCF1E6" stroke="#DFC298" stroke-width="0.75" stroke-miterlimit="10"/>
<path d="M361.823 658.797C376.437 646.187 378.061 624.117 365.45 609.503C352.84 594.888 330.77 593.264 316.156 605.875C301.542 618.485 299.918 640.555 312.528 655.169C325.139 669.783 347.208 671.408 361.823 658.797Z" fill="#FCF1E6" stroke="#DFC298" stroke-width="0.75" stroke-miterlimit="10"/>
<path d="M338.989 651.303C349.468 651.303 357.962 642.809 357.962 632.33C357.962 621.852 349.468 613.358 338.989 613.358C328.511 613.358 320.017 621.852 320.017 632.33C320.017 642.809 328.511 651.303 338.989 651.303Z" fill="#FCF1E6" stroke="#DFC298" stroke-width="0.75" stroke-miterlimit="10"/>
<path d="M60.5319 778.728C111.822 778.728 153.4 737.15 153.4 685.86C153.4 634.57 111.822 592.992 60.5319 592.992C9.24236 592.992 -32.3361 634.57 -32.3361 685.86C-32.3361 737.15 9.24236 778.728 60.5319 778.728Z" fill="#FCF1E6" stroke="#DFC298" stroke-width="0.75" stroke-miterlimit="10"/>
<path d="M59.5334 765.747C103.102 765.747 138.422 730.427 138.422 686.859C138.422 643.29 103.102 607.97 59.5334 607.97C15.9646 607.97 -19.355 643.29 -19.355 686.859C-19.355 730.427 15.9646 765.747 59.5334 765.747Z" fill="#FCF1E6" stroke="#DFC298" stroke-width="0.75" stroke-miterlimit="10"/>
<path d="M59.5334 751.766C95.3806 751.766 124.441 722.706 124.441 686.858C124.441 651.011 95.3806 621.951 59.5334 621.951C23.6863 621.951 -5.37363 651.011 -5.37363 686.858C-5.37363 722.706 23.6863 751.766 59.5334 751.766Z" fill="#FCF1E6" stroke="#DFC298" stroke-width="0.75" stroke-miterlimit="10"/>
<path d="M94.1254 721.455C113.234 702.346 113.234 671.366 94.1254 652.257C75.0171 633.149 44.0364 633.149 24.9281 652.257C5.81981 671.366 5.81981 702.346 24.9281 721.455C44.0364 740.563 75.0171 740.563 94.1254 721.455Z" fill="#FCF1E6" stroke="#DFC298" stroke-width="0.75" stroke-miterlimit="10"/>
<path d="M83.392 712.361C97.4772 699.164 98.197 677.047 84.9997 662.962C71.8024 648.877 49.6856 648.157 35.6004 661.354C21.5151 674.551 20.7953 696.668 33.9926 710.754C47.1899 724.839 69.3068 725.559 83.392 712.361Z" fill="#FCF1E6" stroke="#DFC298" stroke-width="0.75" stroke-miterlimit="10"/>
<path d="M59.5334 705.831C70.0116 705.831 78.5058 697.337 78.5058 686.859C78.5058 676.381 70.0116 667.886 59.5334 667.886C49.0553 667.886 40.5611 676.381 40.5611 686.859C40.5611 697.337 49.0553 705.831 59.5334 705.831Z" fill="#FCF1E6" stroke="#DFC298" stroke-width="0.75" stroke-miterlimit="10"/>
<path d="M246.268 778.728C297.557 778.728 339.136 737.15 339.136 685.86C339.136 634.57 297.557 592.992 246.268 592.992C194.978 592.992 153.4 634.57 153.4 685.86C153.4 737.15 194.978 778.728 246.268 778.728Z" fill="#FCF1E6" stroke="#DFC298" stroke-width="0.75" stroke-miterlimit="10"/>
<path d="M245.269 765.747C288.838 765.747 324.158 730.427 324.158 686.859C324.158 643.29 288.838 607.97 245.269 607.97C201.701 607.97 166.381 643.29 166.381 686.859C166.381 730.427 201.701 765.747 245.269 765.747Z" fill="#FCF1E6" stroke="#DFC298" stroke-width="0.75" stroke-miterlimit="10"/>
<path d="M245.269 751.766C281.117 751.766 310.176 722.706 310.176 686.858C310.176 651.011 281.117 621.951 245.269 621.951C209.422 621.951 180.362 651.011 180.362 686.858C180.362 722.706 209.422 751.766 245.269 751.766Z" fill="#FCF1E6" stroke="#DFC298" stroke-width="0.75" stroke-miterlimit="10"/>
<path d="M276.462 724.595C297.275 707.359 300.176 676.514 282.94 655.701C265.705 634.887 234.86 631.987 214.046 649.223C193.233 666.458 190.332 697.303 207.568 718.116C224.803 738.93 255.648 741.83 276.462 724.595Z" fill="#FCF1E6" stroke="#DFC298" stroke-width="0.75" stroke-miterlimit="10"/>
<path d="M268.475 712.988C282.915 700.178 284.237 678.088 271.428 663.648C258.619 649.207 236.529 647.885 222.088 660.694C207.648 673.504 206.326 695.594 219.135 710.034C231.944 724.475 254.034 725.797 268.475 712.988Z" fill="#FCF1E6" stroke="#DFC298" stroke-width="0.75" stroke-miterlimit="10"/>
<path d="M245.269 705.831C255.748 705.831 264.242 697.337 264.242 686.859C264.242 676.381 255.748 667.886 245.269 667.886C234.791 667.886 226.297 676.381 226.297 686.859C226.297 697.337 234.791 705.831 245.269 705.831Z" fill="#FCF1E6" stroke="#DFC298" stroke-width="0.75" stroke-miterlimit="10"/>
<path d="M432.004 778.728C483.294 778.728 524.872 737.15 524.872 685.86C524.872 634.57 483.294 592.992 432.004 592.992C380.714 592.992 339.136 634.57 339.136 685.86C339.136 737.15 380.714 778.728 432.004 778.728Z" fill="#FCF1E6" stroke="#DFC298" stroke-width="0.75" stroke-miterlimit="10"/>
<path d="M431.005 765.747C474.574 765.747 509.894 730.427 509.894 686.859C509.894 643.29 474.574 607.97 431.005 607.97C387.437 607.97 352.117 643.29 352.117 686.859C352.117 730.427 387.437 765.747 431.005 765.747Z" fill="#FCF1E6" stroke="#DFC298" stroke-width="0.75" stroke-miterlimit="10"/>
<path d="M431.005 751.766C466.853 751.766 495.912 722.706 495.912 686.858C495.912 651.011 466.853 621.951 431.005 621.951C395.158 621.951 366.098 651.011 366.098 686.858C366.098 722.706 395.158 751.766 431.005 751.766Z" fill="#FCF1E6" stroke="#DFC298" stroke-width="0.75" stroke-miterlimit="10"/>
<path d="M460.753 725.75C482.226 709.341 486.331 678.632 469.923 657.159C453.514 635.686 422.805 631.581 401.332 647.99C379.859 664.398 375.754 695.108 392.163 716.58C408.571 738.053 439.28 742.159 460.753 725.75Z" fill="#FCF1E6" stroke="#DFC298" stroke-width="0.75" stroke-miterlimit="10"/>
<path d="M453.489 713.6C468.269 701.184 470.186 679.138 457.771 664.358C445.355 649.578 423.309 647.661 408.529 660.076C393.748 672.492 391.832 694.538 404.247 709.318C416.663 724.099 438.709 726.015 453.489 713.6Z" fill="#FCF1E6" stroke="#DFC298" stroke-width="0.75" stroke-miterlimit="10"/>
<path d="M-31.484 831.552C19.8056 831.552 61.384 789.974 61.384 738.684C61.384 687.394 19.8056 645.816 -31.484 645.816C-82.7736 645.816 -124.352 687.394 -124.352 738.684C-124.352 789.974 -82.7736 831.552 -31.484 831.552Z" fill="#FCF1E6" stroke="#DFC298" stroke-width="0.75" stroke-miterlimit="10"/>
<path d="M-32.4826 818.571C11.0863 818.571 46.4058 783.251 46.4058 739.683C46.4058 696.114 11.0863 660.794 -32.4826 660.794C-76.0514 660.794 -111.371 696.114 -111.371 739.683C-111.371 783.251 -76.0514 818.571 -32.4826 818.571Z" fill="#FCF1E6" stroke="#DFC298" stroke-width="0.75" stroke-miterlimit="10"/>
<path d="M-32.4825 804.59C3.36465 804.59 32.4245 775.53 32.4245 739.683C32.4245 703.835 3.36465 674.776 -32.4825 674.776C-68.3297 674.776 -97.3896 703.835 -97.3896 739.683C-97.3896 775.53 -68.3297 804.59 -32.4825 804.59Z" fill="#FCF1E6" stroke="#DFC298" stroke-width="0.75" stroke-miterlimit="10"/>
<path d="M2.10963 774.278C21.2179 755.169 21.2179 724.189 2.10963 705.08C-16.9987 685.972 -47.9794 685.972 -67.0877 705.08C-86.196 724.189 -86.196 755.169 -67.0877 774.278C-47.9794 793.386 -16.9987 793.386 2.10963 774.278Z" fill="#FCF1E6" stroke="#DFC298" stroke-width="0.75" stroke-miterlimit="10"/>
<path d="M-7.77536 764.393C5.87362 750.744 5.87364 728.614 -7.77535 714.965C-21.4243 701.316 -43.5537 701.316 -57.2027 714.965C-70.8517 728.614 -70.8517 750.744 -57.2027 764.393C-43.5537 778.042 -21.4243 778.042 -7.77536 764.393Z" fill="#FCF1E6" stroke="#DFC298" stroke-width="0.75" stroke-miterlimit="10"/>
<path d="M154.252 831.552C205.542 831.552 247.12 789.974 247.12 738.684C247.12 687.394 205.542 645.816 154.252 645.816C102.962 645.816 61.384 687.394 61.384 738.684C61.384 789.974 102.962 831.552 154.252 831.552Z" fill="#FCF1E6" stroke="#DFC298" stroke-width="0.75" stroke-miterlimit="10"/>
<path d="M153.253 818.571C196.822 818.571 232.142 783.251 232.142 739.683C232.142 696.114 196.822 660.794 153.253 660.794C109.685 660.794 74.3651 696.114 74.3651 739.683C74.3651 783.251 109.685 818.571 153.253 818.571Z" fill="#FCF1E6" stroke="#DFC298" stroke-width="0.75" stroke-miterlimit="10"/>
<path d="M153.253 804.59C189.101 804.59 218.161 775.53 218.161 739.683C218.161 703.835 189.101 674.776 153.253 674.776C117.406 674.776 88.3464 703.835 88.3464 739.683C88.3464 775.53 117.406 804.59 153.253 804.59Z" fill="#FCF1E6" stroke="#DFC298" stroke-width="0.75" stroke-miterlimit="10"/>
<path d="M185.166 776.737C205.631 759.09 207.916 728.195 190.269 707.73C172.623 687.265 141.728 684.98 121.263 702.627C100.798 720.273 98.5132 751.168 116.16 771.633C133.806 792.098 164.701 794.383 185.166 776.737Z" fill="#FCF1E6" stroke="#DFC298" stroke-width="0.75" stroke-miterlimit="10"/>
<path d="M176.796 765.523C191.062 752.521 192.087 730.415 179.085 716.148C166.082 701.882 143.977 700.857 129.71 713.859C115.443 726.861 114.418 748.967 127.421 763.234C140.423 777.501 162.529 778.526 176.796 765.523Z" fill="#FCF1E6" stroke="#DFC298" stroke-width="0.75" stroke-miterlimit="10"/>
<path d="M153.253 758.655C163.732 758.655 172.226 750.161 172.226 739.683C172.226 729.205 163.732 720.71 153.253 720.71C142.775 720.71 134.281 729.205 134.281 739.683C134.281 750.161 142.775 758.655 153.253 758.655Z" fill="#FCF1E6" stroke="#DFC298" stroke-width="0.75" stroke-miterlimit="10"/>
<path d="M339.988 831.552C391.278 831.552 432.856 789.974 432.856 738.684C432.856 687.394 391.278 645.816 339.988 645.816C288.698 645.816 247.12 687.394 247.12 738.684C247.12 789.974 288.698 831.552 339.988 831.552Z" fill="#FCF1E6" stroke="#DFC298" stroke-width="0.75" stroke-miterlimit="10"/>
<path d="M338.989 818.571C382.558 818.571 417.878 783.251 417.878 739.683C417.878 696.114 382.558 660.794 338.989 660.794C295.421 660.794 260.101 696.114 260.101 739.683C260.101 783.251 295.421 818.571 338.989 818.571Z" fill="#FCF1E6" stroke="#DFC298" stroke-width="0.75" stroke-miterlimit="10"/>
<path d="M338.989 804.59C374.837 804.59 403.896 775.53 403.896 739.683C403.896 703.835 374.837 674.776 338.989 674.776C303.142 674.776 274.082 703.835 274.082 739.683C274.082 775.53 303.142 804.59 338.989 804.59Z" fill="#FCF1E6" stroke="#DFC298" stroke-width="0.75" stroke-miterlimit="10"/>
<path d="M369.457 777.928C390.608 761.109 394.12 730.328 377.301 709.176C360.481 688.025 329.7 684.513 308.549 701.333C287.397 718.152 283.886 748.934 300.705 770.085C317.524 791.236 348.306 794.748 369.457 777.928Z" fill="#FCF1E6" stroke="#DFC298" stroke-width="0.75" stroke-miterlimit="10"/>
<path d="M361.822 766.15C376.436 753.539 378.061 731.469 365.45 716.855C352.84 702.241 330.77 700.617 316.156 713.227C301.541 725.838 299.917 747.908 312.528 762.522C325.138 777.136 347.208 778.76 361.822 766.15Z" fill="#FCF1E6" stroke="#DFC298" stroke-width="0.75" stroke-miterlimit="10"/>
<path d="M338.989 758.655C349.468 758.655 357.962 750.161 357.962 739.683C357.962 729.205 349.468 720.71 338.989 720.71C328.511 720.71 320.017 729.205 320.017 739.683C320.017 750.161 328.511 758.655 338.989 758.655Z" fill="#FCF1E6" stroke="#DFC298" stroke-width="0.75" stroke-miterlimit="10"/>
<path d="M60.5319 886.08C111.822 886.08 153.4 844.502 153.4 793.212C153.4 741.923 111.822 700.344 60.5319 700.344C9.24236 700.344 -32.3361 741.923 -32.3361 793.212C-32.3361 844.502 9.24236 886.08 60.5319 886.08Z" fill="#FCF1E6" stroke="#DFC298" stroke-width="0.75" stroke-miterlimit="10"/>
<path d="M59.5334 873.099C103.102 873.099 138.422 837.779 138.422 794.211C138.422 750.642 103.102 715.322 59.5334 715.322C15.9646 715.322 -19.355 750.642 -19.355 794.211C-19.355 837.779 15.9646 873.099 59.5334 873.099Z" fill="#FCF1E6" stroke="#DFC298" stroke-width="0.75" stroke-miterlimit="10"/>
<path d="M59.5334 859.118C95.3806 859.118 124.441 830.058 124.441 794.211C124.441 758.363 95.3806 729.304 59.5334 729.304C23.6863 729.304 -5.37363 758.363 -5.37363 794.211C-5.37363 830.058 23.6863 859.118 59.5334 859.118Z" fill="#FCF1E6" stroke="#DFC298" stroke-width="0.75" stroke-miterlimit="10"/>
<path d="M94.1247 828.806C113.233 809.698 113.233 778.717 94.1247 759.609C75.0164 740.5 44.0357 740.5 24.9274 759.609C5.81911 778.717 5.81911 809.698 24.9274 828.806C44.0357 847.914 75.0164 847.914 94.1247 828.806Z" fill="#FCF1E6" stroke="#DFC298" stroke-width="0.75" stroke-miterlimit="10"/>
<path d="M83.387 819.711C97.4723 806.514 98.1921 784.397 84.9948 770.312C71.7975 756.227 49.6806 755.507 35.5954 768.704C21.5102 781.901 20.7904 804.018 33.9877 818.103C47.185 832.189 69.3018 832.908 83.387 819.711Z" fill="#FCF1E6" stroke="#DFC298" stroke-width="0.75" stroke-miterlimit="10"/>
<path d="M59.5334 813.183C70.0116 813.183 78.5058 804.689 78.5058 794.211C78.5058 783.733 70.0116 775.238 59.5334 775.238C49.0553 775.238 40.5611 783.733 40.5611 794.211C40.5611 804.689 49.0553 813.183 59.5334 813.183Z" fill="#FCF1E6" stroke="#DFC298" stroke-width="0.75" stroke-miterlimit="10"/>
<path d="M246.268 886.08C297.557 886.08 339.136 844.502 339.136 793.212C339.136 741.923 297.557 700.344 246.268 700.344C194.978 700.344 153.4 741.923 153.4 793.212C153.4 844.502 194.978 886.08 246.268 886.08Z" fill="#FCF1E6" stroke="#DFC298" stroke-width="0.75" stroke-miterlimit="10"/>
<path d="M245.269 873.099C288.838 873.099 324.158 837.779 324.158 794.211C324.158 750.642 288.838 715.322 245.269 715.322C201.701 715.322 166.381 750.642 166.381 794.211C166.381 837.779 201.701 873.099 245.269 873.099Z" fill="#FCF1E6" stroke="#DFC298" stroke-width="0.75" stroke-miterlimit="10"/>
<path d="M245.269 859.118C281.117 859.118 310.176 830.058 310.176 794.211C310.176 758.363 281.117 729.304 245.269 729.304C209.422 729.304 180.362 758.363 180.362 794.211C180.362 830.058 209.422 859.118 245.269 859.118Z" fill="#FCF1E6" stroke="#DFC298" stroke-width="0.75" stroke-miterlimit="10"/>
<path d="M276.456 831.951C297.27 814.715 300.17 783.871 282.935 763.057C265.699 742.244 234.854 739.343 214.041 756.579C193.227 773.814 190.327 804.659 207.562 825.473C224.798 846.286 255.643 849.187 276.456 831.951Z" fill="#FCF1E6" stroke="#DFC298" stroke-width="0.75" stroke-miterlimit="10"/>
<path d="M268.478 820.339C282.918 807.53 284.24 785.439 271.431 770.999C258.622 756.559 236.531 755.236 222.091 768.046C207.651 780.855 206.328 802.945 219.138 817.386C231.947 831.826 254.037 833.148 268.478 820.339Z" fill="#FCF1E6" stroke="#DFC298" stroke-width="0.75" stroke-miterlimit="10"/>
<path d="M245.269 813.183C255.748 813.183 264.242 804.689 264.242 794.211C264.242 783.733 255.748 775.238 245.269 775.238C234.791 775.238 226.297 783.733 226.297 794.211C226.297 804.689 234.791 813.183 245.269 813.183Z" fill="#FCF1E6" stroke="#DFC298" stroke-width="0.75" stroke-miterlimit="10"/>
<path d="M432.004 886.08C483.294 886.08 524.872 844.502 524.872 793.212C524.872 741.923 483.294 700.344 432.004 700.344C380.714 700.344 339.136 741.923 339.136 793.212C339.136 844.502 380.714 886.08 432.004 886.08Z" fill="#FCF1E6" stroke="#DFC298" stroke-width="0.75" stroke-miterlimit="10"/>
<path d="M431.005 873.099C474.574 873.099 509.894 837.779 509.894 794.211C509.894 750.642 474.574 715.322 431.005 715.322C387.437 715.322 352.117 750.642 352.117 794.211C352.117 837.779 387.437 873.099 431.005 873.099Z" fill="#FCF1E6" stroke="#DFC298" stroke-width="0.75" stroke-miterlimit="10"/>
<path d="M431.005 859.118C466.853 859.118 495.912 830.058 495.912 794.211C495.912 758.363 466.853 729.304 431.005 729.304C395.158 729.304 366.098 758.363 366.098 794.211C366.098 830.058 395.158 859.118 431.005 859.118Z" fill="#FCF1E6" stroke="#DFC298" stroke-width="0.75" stroke-miterlimit="10"/>
<path d="M460.755 833.106C482.228 816.697 486.333 785.988 469.925 764.515C453.516 743.042 422.807 738.937 401.334 755.346C379.861 771.754 375.756 802.463 392.165 823.936C408.573 845.409 439.282 849.515 460.755 833.106Z" fill="#FCF1E6" stroke="#DFC298" stroke-width="0.75" stroke-miterlimit="10"/>
<path d="M453.491 820.95C468.271 808.535 470.188 786.489 457.773 771.708C445.357 756.928 423.311 755.011 408.531 767.427C393.75 779.842 391.834 801.889 404.249 816.669C416.665 831.449 438.711 833.366 453.491 820.95Z" fill="#FCF1E6" stroke="#DFC298" stroke-width="0.75" stroke-miterlimit="10"/>
<path d="M-31.484 938.904C19.8056 938.904 61.384 897.326 61.384 846.036C61.384 794.746 19.8056 753.168 -31.484 753.168C-82.7736 753.168 -124.352 794.746 -124.352 846.036C-124.352 897.326 -82.7736 938.904 -31.484 938.904Z" fill="#FCF1E6" stroke="#DFC298" stroke-width="0.75" stroke-miterlimit="10"/>
<path d="M-32.4826 925.923C11.0863 925.923 46.4058 890.604 46.4058 847.035C46.4058 803.466 11.0863 768.146 -32.4826 768.146C-76.0514 768.146 -111.371 803.466 -111.371 847.035C-111.371 890.604 -76.0514 925.923 -32.4826 925.923Z" fill="#FCF1E6" stroke="#DFC298" stroke-width="0.75" stroke-miterlimit="10"/>
<path d="M-32.4825 911.942C3.36465 911.942 32.4245 882.882 32.4245 847.035C32.4245 811.187 3.36465 782.128 -32.4825 782.128C-68.3297 782.128 -97.3896 811.187 -97.3896 847.035C-97.3896 882.882 -68.3297 911.942 -32.4825 911.942Z" fill="#FCF1E6" stroke="#DFC298" stroke-width="0.75" stroke-miterlimit="10"/>
<path d="M2.10899 881.629C21.2173 862.521 21.2173 831.54 2.10896 812.431C-16.9994 793.323 -47.98 793.323 -67.0883 812.431C-86.1967 831.54 -86.1967 862.52 -67.0884 881.629C-47.9801 900.737 -16.9993 900.737 2.10899 881.629Z" fill="#FCF1E6" stroke="#DFC298" stroke-width="0.75" stroke-miterlimit="10"/>
<path d="M-7.77604 871.744C5.87295 858.095 5.87297 835.965 -7.77602 822.316C-21.425 808.667 -43.5544 808.667 -57.2033 822.316C-70.8523 835.965 -70.8524 858.095 -57.2034 871.744C-43.5544 885.393 -21.425 885.393 -7.77604 871.744Z" fill="#FCF1E6" stroke="#DFC298" stroke-width="0.75" stroke-miterlimit="10"/>
<path d="M154.252 938.904C205.542 938.904 247.12 897.326 247.12 846.036C247.12 794.746 205.542 753.168 154.252 753.168C102.962 753.168 61.384 794.746 61.384 846.036C61.384 897.326 102.962 938.904 154.252 938.904Z" fill="#FCF1E6" stroke="#DFC298" stroke-width="0.75" stroke-miterlimit="10"/>
<path d="M153.253 925.923C196.822 925.923 232.142 890.604 232.142 847.035C232.142 803.466 196.822 768.146 153.253 768.146C109.685 768.146 74.3651 803.466 74.3651 847.035C74.3651 890.604 109.685 925.923 153.253 925.923Z" fill="#FCF1E6" stroke="#DFC298" stroke-width="0.75" stroke-miterlimit="10"/>
<path d="M153.253 911.942C189.101 911.942 218.161 882.882 218.161 847.035C218.161 811.187 189.101 782.128 153.253 782.128C117.406 782.128 88.3464 811.187 88.3464 847.035C88.3464 882.882 117.406 911.942 153.253 911.942Z" fill="#FCF1E6" stroke="#DFC298" stroke-width="0.75" stroke-miterlimit="10"/>
<path d="M185.162 884.086C205.627 866.44 207.911 835.545 190.265 815.08C172.619 794.615 141.723 792.33 121.259 809.976C100.794 827.623 98.5088 858.518 116.155 878.983C133.801 899.448 164.697 901.733 185.162 884.086Z" fill="#FCF1E6" stroke="#DFC298" stroke-width="0.75" stroke-miterlimit="10"/>
<path d="M176.795 872.876C191.062 859.874 192.087 837.768 179.084 823.501C166.082 809.235 143.976 808.21 129.709 821.212C115.443 834.214 114.418 856.32 127.42 870.587C140.422 884.854 162.528 885.879 176.795 872.876Z" fill="#FCF1E6" stroke="#DFC298" stroke-width="0.75" stroke-miterlimit="10"/>
<path d="M153.253 866.007C163.732 866.007 172.226 857.513 172.226 847.035C172.226 836.557 163.732 828.062 153.253 828.062C142.775 828.062 134.281 836.557 134.281 847.035C134.281 857.513 142.775 866.007 153.253 866.007Z" fill="#FCF1E6" stroke="#DFC298" stroke-width="0.75" stroke-miterlimit="10"/>
<path d="M339.988 938.904C391.278 938.904 432.856 897.326 432.856 846.036C432.856 794.746 391.278 753.168 339.988 753.168C288.698 753.168 247.12 794.746 247.12 846.036C247.12 897.326 288.698 938.904 339.988 938.904Z" fill="#FCF1E6" stroke="#DFC298" stroke-width="0.75" stroke-miterlimit="10"/>
<path d="M338.989 925.923C382.558 925.923 417.878 890.604 417.878 847.035C417.878 803.466 382.558 768.146 338.989 768.146C295.421 768.146 260.101 803.466 260.101 847.035C260.101 890.604 295.421 925.923 338.989 925.923Z" fill="#FCF1E6" stroke="#DFC298" stroke-width="0.75" stroke-miterlimit="10"/>
<path d="M338.989 911.942C374.837 911.942 403.896 882.882 403.896 847.035C403.896 811.187 374.837 782.128 338.989 782.128C303.142 782.128 274.082 811.187 274.082 847.035C274.082 882.882 303.142 911.942 338.989 911.942Z" fill="#FCF1E6" stroke="#DFC298" stroke-width="0.75" stroke-miterlimit="10"/>
<path d="M369.462 885.277C390.613 868.457 394.125 837.676 377.306 816.525C360.486 795.373 329.705 791.862 308.553 808.681C287.402 825.501 283.891 856.282 300.71 877.433C317.529 898.585 348.311 902.096 369.462 885.277Z" fill="#FCF1E6" stroke="#DFC298" stroke-width="0.75" stroke-miterlimit="10"/>
<path d="M361.822 873.502C376.436 860.892 378.06 838.822 365.45 824.208C352.839 809.594 330.769 807.969 316.155 820.58C301.541 833.19 299.917 855.26 312.527 869.874C325.138 884.489 347.208 886.113 361.822 873.502Z" fill="#FCF1E6" stroke="#DFC298" stroke-width="0.75" stroke-miterlimit="10"/>
<path d="M338.989 866.007C349.468 866.007 357.962 857.513 357.962 847.035C357.962 836.557 349.468 828.062 338.989 828.062C328.511 828.062 320.017 836.557 320.017 847.035C320.017 857.513 328.511 866.007 338.989 866.007Z" fill="#FCF1E6" stroke="#DFC298" stroke-width="0.75" stroke-miterlimit="10"/>
<path d="M60.5319 993.432C111.822 993.432 153.4 951.854 153.4 900.564C153.4 849.274 111.822 807.696 60.5319 807.696C9.24236 807.696 -32.3361 849.274 -32.3361 900.564C-32.3361 951.854 9.24236 993.432 60.5319 993.432Z" fill="#FCF1E6" stroke="#DFC298" stroke-width="0.75" stroke-miterlimit="10"/>
<path d="M59.5334 980.451C103.102 980.451 138.422 945.132 138.422 901.563C138.422 857.994 103.102 822.674 59.5334 822.674C15.9646 822.674 -19.355 857.994 -19.355 901.563C-19.355 945.132 15.9646 980.451 59.5334 980.451Z" fill="#FCF1E6" stroke="#DFC298" stroke-width="0.75" stroke-miterlimit="10"/>
<path d="M59.5334 966.47C95.3806 966.47 124.441 937.41 124.441 901.562C124.441 865.715 95.3806 836.655 59.5334 836.655C23.6863 836.655 -5.37363 865.715 -5.37363 901.562C-5.37363 937.41 23.6863 966.47 59.5334 966.47Z" fill="#FCF1E6" stroke="#DFC298" stroke-width="0.75" stroke-miterlimit="10"/>
<path d="M94.1239 936.157C113.232 917.049 113.232 886.068 94.1239 866.96C75.0156 847.851 44.0349 847.851 24.9266 866.96C5.81828 886.068 5.81828 917.049 24.9266 936.157C44.0349 955.265 75.0156 955.265 94.1239 936.157Z" fill="#FCF1E6" stroke="#DFC298" stroke-width="0.75" stroke-miterlimit="10"/>
<path d="M246.268 993.432C297.557 993.432 339.136 951.854 339.136 900.564C339.136 849.274 297.557 807.696 246.268 807.696C194.978 807.696 153.4 849.274 153.4 900.564C153.4 951.854 194.978 993.432 246.268 993.432Z" fill="#FCF1E6" stroke="#DFC298" stroke-width="0.75" stroke-miterlimit="10"/>
<path d="M245.269 980.451C288.838 980.451 324.158 945.132 324.158 901.563C324.158 857.994 288.838 822.674 245.269 822.674C201.701 822.674 166.381 857.994 166.381 901.563C166.381 945.132 201.701 980.451 245.269 980.451Z" fill="#FCF1E6" stroke="#DFC298" stroke-width="0.75" stroke-miterlimit="10"/>
<path d="M245.269 966.47C281.117 966.47 310.176 937.41 310.176 901.562C310.176 865.715 281.117 836.655 245.269 836.655C209.422 836.655 180.362 865.715 180.362 901.562C180.362 937.41 209.422 966.47 245.269 966.47Z" fill="#FCF1E6" stroke="#DFC298" stroke-width="0.75" stroke-miterlimit="10"/>
<path d="M276.451 939.307C297.265 922.072 300.165 891.227 282.93 870.413C265.694 849.6 234.849 846.699 214.036 863.935C193.222 881.171 190.322 912.015 207.557 932.829C224.793 953.642 255.638 956.543 276.451 939.307Z" fill="#FCF1E6" stroke="#DFC298" stroke-width="0.75" stroke-miterlimit="10"/>
<path d="M432.004 993.432C483.294 993.432 524.872 951.854 524.872 900.564C524.872 849.274 483.294 807.696 432.004 807.696C380.714 807.696 339.136 849.274 339.136 900.564C339.136 951.854 380.714 993.432 432.004 993.432Z" fill="#FCF1E6" stroke="#DFC298" stroke-width="0.75" stroke-miterlimit="10"/>
<path d="M431.005 980.451C474.574 980.451 509.894 945.132 509.894 901.563C509.894 857.994 474.574 822.674 431.005 822.674C387.437 822.674 352.117 857.994 352.117 901.563C352.117 945.132 387.437 980.451 431.005 980.451Z" fill="#FCF1E6" stroke="#DFC298" stroke-width="0.75" stroke-miterlimit="10"/>
<path d="M431.005 966.47C466.853 966.47 495.912 937.41 495.912 901.562C495.912 865.715 466.853 836.655 431.005 836.655C395.158 836.655 366.098 865.715 366.098 901.562C366.098 937.41 395.158 966.47 431.005 966.47Z" fill="#FCF1E6" stroke="#DFC298" stroke-width="0.75" stroke-miterlimit="10"/>
<path d="M460.757 940.462C482.23 924.053 486.336 893.344 469.927 871.871C453.518 850.398 422.809 846.293 401.336 862.702C379.864 879.11 375.758 909.819 392.167 931.292C408.576 952.765 439.285 956.871 460.757 940.462Z" fill="#FCF1E6" stroke="#DFC298" stroke-width="0.75" stroke-miterlimit="10"/>
<path d="M622.896 90.2063C622.896 90.2063 593.908 67.0149 559.122 67.0149C524.337 67.0149 489.55 90.2063 495.348 136.588C495.348 136.588 448.967 113.396 431.575 153.98C431.575 153.98 403.039 142.284 385.193 165.576C385.193 165.576 327.216 142.385 309.824 177.172C292.431 211.957 333.015 229.352 333.015 229.352C333.015 229.352 304.027 182.97 344.611 188.767C385.195 194.564 373.599 223.553 431.576 235.149C489.553 246.744 506.946 211.957 506.946 211.957C506.946 211.957 530.137 240.946 559.126 235.149C588.114 229.352 599.71 211.957 599.71 211.957C599.71 211.957 617.103 235.149 651.89 229.35C686.675 223.553 698.271 200.361 698.271 200.361C698.271 200.361 721.463 211.957 750.451 211.957C779.439 211.957 802.631 200.361 802.631 171.373C802.631 171.373 782.34 203.26 759.148 185.867C735.957 168.474 735.957 156.879 706.968 162.676C706.968 162.676 701.171 133.687 677.98 133.687C677.973 133.689 672.176 75.7121 622.896 90.2063Z" fill="#FCF1E6" stroke="#DFC298" stroke-width="0.75" stroke-miterlimit="10"/>
<path d="M496.081 138.23C496.081 138.23 473.774 122.293 449.862 133.655C449.862 133.655 434.998 140.493 430.474 154.067C430.474 154.067 403.326 142.756 385.227 165.378C385.227 165.378 325.685 144.141 309.502 177.722C303.309 190.572 306.097 205.942 315.643 216.539C319.775 221.126 325.46 225.63 333.194 228.723C333.194 228.723 309.011 188.541 338.071 188.272C367.129 188.002 385.251 221.171 411.256 229.473C437.261 237.773 482.507 246.823 507.392 212.888C507.392 212.888 509.655 192.526 489.294 188.002C468.933 183.478 457.622 199.314 464.409 212.888C471.196 226.462 489.294 221.938 489.294 210.625" stroke="#DFC298" stroke-miterlimit="10" stroke-linecap="round" stroke-linejoin="round"/>
<path d="M385.228 165.377C385.228 165.377 382.965 178.951 403.326 181.214C423.687 183.477 414.637 160.852 405.589 163.115C396.539 165.378 398.802 172.165 401.064 174.427" stroke="#DFC298" stroke-miterlimit="10" stroke-linecap="round" stroke-linejoin="round"/>
<path d="M-18.7519 43.9359C-18.7519 43.9359 -47.3434 21.0631 -81.6517 21.0631C-115.96 21.0631 -150.272 43.9359 -144.553 89.6815C-144.553 89.6815 -190.299 66.8087 -207.453 106.836C-207.453 106.836 -236.044 95.3984 -253.198 118.271C-253.198 118.271 -310.38 95.3984 -327.535 129.708C-344.691 164.018 -304.663 181.173 -304.663 181.173C-304.663 181.173 -333.254 135.427 -293.227 141.146C-253.2 146.864 -264.636 175.456 -207.455 186.891C-150.273 198.329 -133.118 164.018 -133.118 164.018C-133.118 164.018 -110.245 192.61 -81.6534 186.891C-53.062 181.173 -41.6264 164.018 -41.6264 164.018C-41.6264 164.018 -24.4722 186.891 9.8378 181.173C44.1461 175.454 55.5834 152.581 55.5834 152.581C55.5834 152.581 78.4562 164.018 107.048 164.018C135.639 164.018 158.512 152.581 158.512 123.992C158.512 123.992 138.498 155.442 115.626 138.286C92.7527 121.132 92.7527 109.695 64.1613 115.414C64.1613 115.414 58.4427 86.8222 35.5699 86.8222C35.5699 86.8222 29.853 29.641 -18.7519 43.9359Z" fill="#FCF1E6" stroke="#DFC298" stroke-width="0.75" stroke-miterlimit="10"/>
<path d="M-104.78 67.872C-95.8543 41.0971 -53.4605 58.9465 -66.8488 92.4164C-80.2371 125.886 -119.502 116.102 -132.673 104.689C-149.408 90.1859 -156.101 45.5598 -109.905 26.5722C-63.7083 7.58449 -17.7617 45.5598 -17.7617 45.5598C-17.7617 45.5598 1.53611 34.5452 20.3363 51.7675C39.1366 68.9881 34.6738 86.8392 34.6738 86.8392C34.6738 86.8392 30.211 120.309 -7.72001 104.689C-45.6528 89.0698 -3.25723 48.9065 7.89885 75.6814" stroke="#DFC298" stroke-miterlimit="10" stroke-linecap="round" stroke-linejoin="round"/>
<path d="M35.5701 86.8221C35.5701 86.8221 56.9877 84.6069 63.681 115.845C63.681 115.845 82.5085 106.532 102.101 126.807C121.694 147.082 137.313 149.313 157.394 124.769C157.394 124.769 167.064 188.733 57.3592 153.404C57.3592 153.404 14.9296 203.849 -33.1965 171.117C-40.2902 166.293 -44.8519 158.31 -44.6252 149.736C-44.4685 143.802 -42.1476 137.518 -34.4966 133.694C-16.6472 124.769 1.20387 131.464 3.4344 149.313C5.66664 167.164 -25.5728 167.164 -25.5728 149.313" stroke="#DFC298" stroke-miterlimit="10" stroke-linecap="round" stroke-linejoin="round"/>
</g>
<defs>
<clipPath id="clip0_17_8863">
<rect width="393" height="851" fill="white"/>
</clipPath>
</defs>
</svg>
