<svg width="166" height="194" viewBox="0 0 166 194" fill="none" xmlns="http://www.w3.org/2000/svg">
<path fill-rule="evenodd" clip-rule="evenodd" d="M0 107C12.0575 121.256 26.5 122.5 46.5 99C41.5613 99.544 37.1603 101.431 33.6889 102.919L33.5 103C31.0216 97.6302 31.6144 82.0233 31.8955 76.7582C31.9566 75.6133 32.4269 74.5426 33.2093 73.7044L45.221 60.8346C45.7337 60.2853 46.3637 59.8586 47.0641 59.5862L52.7052 57.3924C54.1521 56.8297 55.2556 55.6269 55.6916 54.1369L60.6691 37.1306C60.8818 36.4039 60.8118 35.6236 60.4732 34.9463L55.8676 25.7352C55.2226 24.4452 53.4656 24.2412 52.5423 25.3492L50.8601 27.3679C50.1226 28.2529 48.7918 28.3335 47.9529 27.5439L41.798 21.7511C41.3009 21.2832 41.0821 20.5935 41.308 19.9492C42.3346 17.0217 46.4787 8.43307 61.5 0C67.9174 33.4908 98.8423 62.1857 123.5 63C114.063 54.4228 107.699 51.1157 94 48.5C103.724 24.5766 112.339 15.8236 134 9.5C133.714 38.3602 139.471 48.7675 146.79 61.9998C152.277 71.9216 158.644 83.4317 164 105.5C165.199 115.889 162.885 127.475 160.791 137.962C157.644 153.721 154.992 166.998 165.5 170C153.467 191.003 140.342 196.065 104 191.5C69.2326 182.069 50.4432 181.277 17.5 183.5L39 168C11.3528 157.421 5.25761 141.458 0 107ZM95 106.5C95 106.5 92.5 125 94.5 128.5C95.118 129.582 98.0755 130.568 101.986 131.871C110.729 134.786 124.236 139.29 127 150C134.434 120.263 117.257 114.274 99.1412 107.958C97.7628 107.477 96.3789 106.995 95 106.5ZM116.571 94.0223L116.5 94C118.181 97.1215 118.247 98.8593 118.305 100.376C118.366 101.956 118.417 103.297 120.275 105.713C120.418 105.899 120.628 106.027 120.86 106.067C125.572 106.877 126.988 104.415 126.5 101C124.51 96.5222 121.338 95.5235 116.571 94.0223Z" fill="#F8A3C4"/>
<path d="M34.1572 13.8193C34.778 13.4202 35.5698 13.3933 36.2168 13.749C36.8113 14.0758 37.1981 14.6789 37.2461 15.3506L37.7539 22.4717C37.7927 23.0145 38.0102 23.5268 38.3691 23.9307L38.5312 24.0967L46.5996 31.6182C47.823 32.7587 49.731 32.7396 50.9307 31.5742L53.3174 29.2559C53.7349 28.8505 54.4313 28.9985 54.6475 29.5332L57.1035 35.6182C57.1711 35.7855 57.1803 35.9712 57.1299 36.1445L52.5342 51.9375C52.3554 52.5517 51.9076 53.0547 51.3135 53.3037L44.2354 56.2676C43.8254 56.4393 43.4562 56.6967 43.1533 57.0215L32.6025 68.335C32.2903 68.6696 31.7608 68.6828 31.4316 68.3643L7.74609 45.4141C7.50741 45.1826 7.43499 44.8313 7.56152 44.5264L14.0527 28.9014C14.2342 28.4649 14.7538 28.2725 15.1807 28.4893L18.4365 30.1426C19.6008 30.7338 20.9988 29.943 21.0762 28.6357L21.4453 22.3896C21.4605 22.133 21.5976 21.8976 21.8164 21.7568L34.1572 13.8193Z" fill="#F8A3C4" stroke="#F8A3C4"/>
</svg>
