<svg width="393" height="852" viewBox="0 0 393 852" fill="none" xmlns="http://www.w3.org/2000/svg">
<path d="M392.572 776.212C394.356 774.102 397.315 773.414 399.848 774.52L402.59 775.717C405.75 777.097 409.04 778.154 412.412 778.875L416.929 779.839C417.365 779.933 417.719 780.249 417.861 780.672L418.556 782.745C419.959 786.929 421.939 790.896 424.44 794.533L425.848 796.582C427.439 798.896 427.284 801.987 425.471 804.131L417.152 813.968C408.067 824.71 393.978 829.853 380.104 827.492C378.677 827.249 377.495 826.251 377.018 824.885C372.377 811.607 375.104 796.866 384.189 786.124L392.572 776.212Z" fill="#F9A8C1"/>
<path d="M429.918 821.901C432.478 822.945 434.047 825.545 433.777 828.294L433.485 831.271C433.149 834.7 433.159 838.155 433.515 841.582L433.993 846.174C434.039 846.617 433.848 847.052 433.489 847.317L431.731 848.618C428.183 851.245 425.019 854.353 422.331 857.853L420.817 859.825C419.106 862.052 416.117 862.86 413.516 861.799L401.584 856.932C388.555 851.616 379.307 839.814 377.267 825.898C377.057 824.466 377.642 823.034 378.794 822.158C389.996 813.644 404.866 811.681 417.895 816.996L429.918 821.901Z" fill="#F9A8C1"/>
<path d="M397.98 871.518C397.778 874.273 395.789 876.568 393.089 877.161L390.166 877.804C386.799 878.543 383.515 879.621 380.364 881.019L376.142 882.892C375.734 883.072 375.261 883.025 374.898 882.766L373.116 881.497C369.521 878.936 365.585 876.89 361.423 875.416L359.079 874.586C356.431 873.648 354.738 871.057 354.944 868.257L355.889 855.411C356.921 841.384 365.295 828.947 377.907 822.708C379.204 822.066 380.748 822.179 381.938 823.004C393.501 831.02 399.965 844.547 398.933 858.574L397.98 871.518Z" fill="#F9A8C1"/>
<path d="M340.895 856.493C338.211 857.152 335.412 855.971 334.013 853.588L332.499 851.008C330.754 848.036 328.714 845.248 326.41 842.685L323.323 839.25C323.025 838.919 322.924 838.455 323.058 838.03L323.715 835.944C325.041 831.735 325.772 827.362 325.889 822.951L325.954 820.466C326.028 817.659 327.971 815.249 330.699 814.58L343.215 811.509C356.883 808.155 371.306 812.27 381.141 822.331C382.152 823.365 382.522 824.868 382.104 826.253C378.05 839.722 367.174 850.045 353.506 853.399L340.895 856.493Z" fill="#F9A8C1"/>
<path d="M337.552 797.591C336.096 795.243 336.355 792.218 338.19 790.152L340.177 787.915C342.466 785.339 344.49 782.538 346.217 779.556L348.531 775.561C348.754 775.175 349.165 774.936 349.611 774.932L351.798 774.912C356.214 774.871 360.601 774.215 364.835 772.962L367.22 772.257C369.913 771.46 372.807 772.562 374.287 774.948L381.078 785.895C388.492 797.85 389.033 812.831 382.499 825.288C381.827 826.569 380.511 827.384 379.064 827.416C364.994 827.724 351.809 820.576 344.394 808.622L337.552 797.591Z" fill="#F9A8C1"/>
<path d="M384.922 805.03C385.649 804.171 386.854 803.891 387.886 804.341L389.002 804.829C390.289 805.39 391.629 805.821 393.002 806.114L394.842 806.507C395.02 806.545 395.164 806.674 395.222 806.846L395.505 807.69C396.076 809.394 396.883 811.01 397.901 812.492L398.474 813.326C399.122 814.268 399.059 815.527 398.321 816.4L394.933 820.407C391.233 824.781 385.495 826.876 379.845 825.914C379.264 825.815 378.782 825.409 378.588 824.853C376.698 819.445 377.808 813.442 381.508 809.067L384.922 805.03Z" fill="#F76F99"/>
<path d="M400.132 823.637C401.174 824.063 401.813 825.121 401.704 826.241L401.585 827.453C401.448 828.85 401.452 830.257 401.597 831.652L401.792 833.523C401.81 833.703 401.732 833.88 401.586 833.988L400.87 834.518C399.425 835.588 398.137 836.854 397.042 838.279L396.425 839.082C395.729 839.989 394.511 840.318 393.452 839.886L388.593 837.904C383.286 835.739 379.52 830.933 378.689 825.265C378.604 824.682 378.842 824.099 379.311 823.742C383.873 820.275 389.929 819.475 395.236 821.64L400.132 823.637Z" fill="#F76F99"/>
<path d="M387.125 843.844C387.042 844.966 386.232 845.901 385.133 846.143L383.942 846.404C382.571 846.706 381.234 847.144 379.95 847.714L378.231 848.476C378.065 848.55 377.872 848.531 377.724 848.425L376.999 847.908C375.535 846.866 373.932 846.032 372.237 845.432L371.282 845.094C370.204 844.712 369.514 843.656 369.598 842.516L369.983 837.285C370.403 831.572 373.813 826.507 378.95 823.966C379.478 823.704 380.107 823.751 380.591 824.086C385.301 827.351 387.933 832.86 387.513 838.573L387.125 843.844Z" fill="#F76F99"/>
<path d="M363.876 837.725C362.783 837.994 361.643 837.512 361.074 836.542L360.457 835.491C359.746 834.281 358.916 833.145 357.977 832.102L356.72 830.703C356.599 830.568 356.558 830.379 356.612 830.206L356.88 829.356C357.42 827.642 357.718 825.861 357.765 824.065L357.792 823.053C357.822 821.91 358.613 820.928 359.724 820.656L364.821 819.405C370.387 818.039 376.261 819.715 380.267 823.812C380.679 824.234 380.829 824.846 380.659 825.41C379.008 830.895 374.579 835.099 369.013 836.465L363.876 837.725Z" fill="#F76F99"/>
<path d="M362.515 813.737C361.922 812.781 362.028 811.549 362.775 810.707L363.584 809.796C364.516 808.747 365.34 807.606 366.044 806.392L366.986 804.765C367.077 804.608 367.244 804.51 367.426 804.509L368.317 804.5C370.115 804.484 371.902 804.217 373.626 803.707L374.597 803.419C375.694 803.095 376.873 803.543 377.476 804.515L380.241 808.974C383.261 813.842 383.481 819.943 380.82 825.017C380.546 825.538 380.01 825.87 379.421 825.883C373.691 826.009 368.321 823.098 365.302 818.229L362.515 813.737Z" fill="#F76F99"/>
<path d="M45.5718 776.212C47.356 774.102 50.315 773.414 52.8479 774.52L55.5905 775.717C58.7498 777.097 62.0401 778.154 65.4115 778.875L69.9288 779.839C70.3649 779.933 70.7194 780.249 70.8611 780.672L71.5562 782.745C72.9591 786.929 74.9394 790.896 77.4396 794.533L78.848 796.582C80.4386 798.896 80.2843 801.987 78.471 804.131L70.1515 813.968C61.0669 824.71 46.9779 829.853 33.1044 827.492C31.6774 827.249 30.4951 826.251 30.0178 824.885C25.377 811.607 28.1042 796.866 37.1888 786.124L45.5718 776.212Z" fill="#F9A8C1"/>
<path d="M82.9185 821.901C85.4775 822.945 87.0466 825.545 86.777 828.294L86.485 831.271C86.1487 834.7 86.1589 838.155 86.5155 841.582L86.9932 846.174C87.0393 846.617 86.8478 847.052 86.4894 847.317L84.7315 848.618C81.1834 851.245 78.0195 854.353 75.331 857.853L73.8167 859.825C72.1063 862.052 69.1169 862.86 66.5162 861.799L54.5842 856.932C41.5547 851.616 32.3067 839.814 30.2666 825.898C30.0567 824.466 30.6418 823.034 31.794 822.158C42.9957 813.644 57.8659 811.681 70.8954 816.996L82.9185 821.901Z" fill="#F9A8C1"/>
<path d="M50.9804 871.518C50.7777 874.273 48.7886 876.568 46.089 877.161L43.1659 877.804C39.7988 878.543 36.5148 879.621 33.3637 881.019L29.1417 882.892C28.7341 883.072 28.2612 883.025 27.898 882.766L26.1164 881.497C22.5207 878.936 18.585 876.89 14.4232 875.416L12.0789 874.586C9.43122 873.648 7.73804 871.057 7.94402 868.257L8.88908 855.411C9.92107 841.384 18.2945 828.947 30.9071 822.708C32.2044 822.066 33.7482 822.179 34.9377 823.004C46.5015 831.02 52.9646 844.547 51.9327 858.574L50.9804 871.518Z" fill="#F9A8C1"/>
<path d="M-6.10515 856.493C-8.78947 857.152 -11.588 855.971 -12.9867 853.588L-14.5013 851.008C-16.246 848.036 -18.2858 845.248 -20.5899 842.685L-23.6769 839.25C-23.975 838.919 -24.0757 838.455 -23.9418 838.03L-23.2849 835.944C-21.9592 831.735 -21.2276 827.362 -21.1113 822.951L-21.0457 820.466C-20.9718 817.659 -19.0288 815.249 -16.3008 814.58L-3.78472 811.509C9.88256 808.155 24.3056 812.27 34.1408 822.331C35.1524 823.365 35.5215 824.868 35.1044 826.253C31.0496 839.722 20.1738 850.045 6.50648 853.399L-6.10515 856.493Z" fill="#F9A8C1"/>
<path d="M-9.44785 797.591C-10.9042 795.243 -10.6446 792.218 -8.80952 790.152L-6.8225 787.915C-4.53363 785.339 -2.51031 782.538 -0.783201 779.556L1.53088 775.561C1.75429 775.175 2.16493 774.936 2.61088 774.932L4.79842 774.912C9.21351 774.871 13.6013 774.215 17.835 772.962L20.2198 772.257C22.9132 771.46 25.8072 772.562 27.2872 774.948L34.0775 785.895C41.4924 797.85 42.0329 812.831 35.4988 825.288C34.8267 826.569 33.511 827.384 32.0638 827.416C17.9939 827.724 4.80915 820.576 -2.60571 808.622L-9.44785 797.591Z" fill="#F9A8C1"/>
<path d="M37.9223 805.03C38.6489 804.171 39.854 803.891 40.8855 804.341L42.0025 804.829C43.2891 805.39 44.6292 805.821 46.0022 806.114L47.8419 806.507C48.0195 806.545 48.1639 806.674 48.2216 806.846L48.5047 807.69C49.076 809.394 49.8825 811.01 50.9008 812.492L51.4743 813.326C52.1221 814.268 52.0593 815.527 51.3208 816.4L47.9326 820.407C44.2328 824.781 38.4949 826.876 32.8448 825.914C32.2636 825.815 31.7822 825.409 31.5878 824.853C29.6978 819.445 30.8084 813.442 34.5082 809.067L37.9223 805.03Z" fill="#F76F99"/>
<path d="M53.1321 823.637C54.1743 824.063 54.8133 825.121 54.7035 826.241L54.5846 827.453C54.4476 828.85 54.4518 830.257 54.597 831.652L54.7916 833.523C54.8103 833.703 54.7323 833.88 54.5864 833.988L53.8704 834.518C52.4255 835.588 51.1369 836.854 50.042 838.279L49.4253 839.082C48.7287 839.989 47.5112 840.318 46.4521 839.886L41.5927 837.904C36.2863 835.739 32.52 830.933 31.6891 825.265C31.6036 824.682 31.8419 824.099 32.3111 823.742C36.8731 820.275 42.9292 819.475 48.2356 821.64L53.1321 823.637Z" fill="#F76F99"/>
<path d="M40.125 843.844C40.0424 844.966 39.2323 845.901 38.1329 846.143L36.9425 846.404C35.5712 846.706 34.2337 847.144 32.9504 847.714L31.231 848.476C31.065 848.55 30.8724 848.531 30.7245 848.425L29.9989 847.908C28.5345 846.866 26.9317 846.032 25.2367 845.432L24.282 845.094C23.2037 844.712 22.5141 843.656 22.598 842.516L22.9829 837.285C23.4032 831.572 26.8133 826.507 31.9499 823.966C32.4783 823.704 33.107 823.751 33.5914 824.086C38.3009 827.351 40.9331 832.86 40.5128 838.573L40.125 843.844Z" fill="#F76F99"/>
<path d="M16.8763 837.725C15.7831 837.994 14.6434 837.512 14.0737 836.542L13.4569 835.491C12.7464 834.281 11.9156 833.145 10.9773 832.102L9.72005 830.703C9.59866 830.568 9.55766 830.379 9.61219 830.206L9.87971 829.356C10.4196 827.642 10.7176 825.861 10.7649 824.065L10.7916 823.053C10.8218 821.91 11.6131 820.928 12.724 820.656L17.8214 819.405C23.3875 818.039 29.2614 819.715 33.2669 823.812C33.6789 824.234 33.8292 824.846 33.6593 825.41C32.008 830.895 27.5787 835.099 22.0126 836.465L16.8763 837.725Z" fill="#F76F99"/>
<path d="M15.515 813.737C14.9219 812.781 15.0276 811.549 15.775 810.707L16.5842 809.796C17.5163 808.747 18.3404 807.606 19.0438 806.392L19.9862 804.765C20.0772 804.608 20.2444 804.51 20.426 804.509L21.3169 804.5C23.115 804.484 24.902 804.217 26.6262 803.707L27.5974 803.419C28.6944 803.095 29.873 803.543 30.4757 804.515L33.2411 808.974C36.2609 813.842 36.481 819.943 33.8199 825.017C33.5462 825.538 33.0104 825.87 32.421 825.883C26.6909 826.009 21.3213 823.098 18.3015 818.229L15.515 813.737Z" fill="#F76F99"/>
<path d="M45.5718 -25.7881C47.356 -27.8979 50.315 -28.586 52.8479 -27.4801L55.5905 -26.2827C58.7498 -24.9033 62.0401 -23.8456 65.4115 -23.1255L69.9288 -22.1606C70.3649 -22.0675 70.7194 -21.7511 70.8611 -21.3285L71.5562 -19.2554C72.9591 -15.0714 74.9394 -11.1035 77.4396 -7.46654L78.848 -5.41783C80.4386 -3.10398 80.2843 -0.0126991 78.471 2.13136L70.1515 11.9685C61.0669 22.7104 46.9779 27.8534 33.1044 25.4922C31.6774 25.2493 30.4951 24.2507 30.0178 22.8849C25.377 9.60667 28.1042 -5.13404 37.1888 -15.8759L45.5718 -25.7881Z" fill="#F9A8C1"/>
<path d="M82.9185 19.9013C85.4775 20.9453 87.0466 23.5451 86.777 26.2944L86.485 29.2713C86.1487 32.7004 86.1589 36.1547 86.5155 39.5817L86.9932 44.1735C87.0393 44.6168 86.8478 45.0516 86.4894 45.3168L84.7315 46.6181C81.1834 49.2445 78.0195 52.3529 75.331 55.8532L73.8167 57.825C72.1063 60.0519 69.1169 60.8604 66.5162 59.7995L54.5842 54.9317C41.5547 49.6162 32.3067 37.814 30.2666 23.8976C30.0567 22.4662 30.6418 21.0339 31.794 20.1581C42.9957 11.6439 57.8659 9.68088 70.8954 14.9964L82.9185 19.9013Z" fill="#F9A8C1"/>
<path d="M50.9804 69.518C50.7777 72.273 48.7886 74.5678 46.089 75.1611L43.1659 75.8035C39.7988 76.5435 36.5148 77.6206 33.3637 79.0186L29.1417 80.8916C28.7341 81.0724 28.2612 81.0247 27.898 80.766L26.1164 79.4972C22.5207 76.9364 18.585 74.8896 14.4232 73.4159L12.0789 72.5858C9.43122 71.6483 7.73804 69.0567 7.94402 66.257L8.88908 53.4114C9.92107 39.3843 18.2945 26.9471 30.9071 20.7075C32.2044 20.0657 33.7482 20.1792 34.9377 21.0037C46.5015 29.0198 52.9646 42.5474 51.9327 56.5744L50.9804 69.518Z" fill="#F9A8C1"/>
<path d="M-6.10515 54.4934C-8.78947 55.1521 -11.588 53.9705 -12.9867 51.588L-14.5013 49.0081C-16.246 46.0363 -18.2858 43.2477 -20.5899 40.6846L-23.6769 37.2504C-23.975 36.9189 -24.0757 36.4547 -23.9418 36.0295L-23.2849 33.9441C-21.9592 29.735 -21.2276 25.3616 -21.1113 20.9505L-21.0457 18.4657C-20.9718 15.6594 -19.0288 13.2492 -16.3008 12.5798L-3.78472 9.50855C9.88256 6.15486 24.3056 10.2705 34.1408 20.3306C35.1524 21.3653 35.5215 22.8678 35.1044 24.2531C31.0496 37.7216 20.1738 48.045 6.50648 51.3987L-6.10515 54.4934Z" fill="#F9A8C1"/>
<path d="M-9.44785 -4.40905C-10.9042 -6.75694 -10.6446 -9.78201 -8.80952 -11.8478L-6.8225 -14.0846C-4.53363 -16.6613 -2.51031 -19.4618 -0.783201 -22.4439L1.53088 -26.4393C1.75429 -26.8251 2.16493 -27.0643 2.61088 -27.0683L4.79842 -27.0884C9.21351 -27.129 13.6013 -27.785 17.835 -29.0376L20.2198 -29.7432C22.9132 -30.5401 25.8072 -29.4381 27.2872 -27.052L34.0775 -16.1046C41.4924 -4.15022 42.0329 10.8306 35.4988 23.2876C34.8267 24.569 33.511 25.3841 32.0638 25.4157C17.9939 25.7236 4.80915 18.5763 -2.60571 6.62196L-9.44785 -4.40905Z" fill="#F9A8C1"/>
<path d="M37.9223 3.02996C38.6489 2.17073 39.854 1.89051 40.8855 2.34089L42.0025 2.82855C43.2891 3.3903 44.6292 3.82107 46.0022 4.11435L47.8419 4.50729C48.0195 4.54523 48.1639 4.67408 48.2216 4.8462L48.5047 5.69046C49.076 7.39444 49.8825 9.0104 50.9008 10.4916L51.4743 11.326C52.1221 12.2683 52.0593 13.5273 51.3208 14.4004L47.9326 18.4067C44.2328 22.7815 38.4949 24.876 32.8448 23.9144C32.2636 23.8155 31.7822 23.4088 31.5878 22.8525C29.6978 17.4448 30.8084 11.4415 34.5082 7.0668L37.9223 3.02996Z" fill="#F76F99"/>
<path d="M53.1321 21.6374C54.1743 22.0626 54.8133 23.1214 54.7035 24.2411L54.5846 25.4534C54.4476 26.85 54.4518 28.2568 54.597 29.6525L54.7916 31.5225C54.8103 31.7031 54.7323 31.8801 54.5864 31.9882L53.8704 32.5181C52.4255 33.5878 51.1369 34.8537 50.042 36.2792L49.4253 37.0822C48.7287 37.9892 47.5112 38.3184 46.4521 37.8864L41.5927 35.9039C36.2863 33.7391 32.52 28.9325 31.6891 23.265C31.6036 22.682 31.8419 22.0987 32.3111 21.742C36.8731 18.2745 42.9292 17.4751 48.2356 19.6399L53.1321 21.6374Z" fill="#F76F99"/>
<path d="M40.125 41.8443C40.0424 42.9663 39.2323 43.9009 38.1329 44.1425L36.9425 44.4042C35.5712 44.7055 34.2337 45.1442 32.9504 45.7135L31.231 46.4763C31.065 46.55 30.8724 46.5305 30.7245 46.4252L29.9989 45.9085C28.5345 44.8655 26.9317 44.032 25.2367 43.4318L24.282 43.0937C23.2037 42.7119 22.5141 41.6565 22.598 40.5162L22.9829 35.2847C23.4032 29.5721 26.8133 24.5069 31.9499 21.9658C32.4783 21.7044 33.107 21.7506 33.5914 22.0864C38.3009 25.351 40.9331 30.8603 40.5128 36.5729L40.125 41.8443Z" fill="#F76F99"/>
<path d="M16.8763 35.7254C15.7831 35.9937 14.6434 35.5125 14.0737 34.5421L13.4569 33.4915C12.7464 32.2812 11.9156 31.1455 10.9773 30.1016L9.72005 28.703C9.59866 28.568 9.55766 28.3789 9.61219 28.2058L9.87971 27.3565C10.4196 25.6423 10.7176 23.8612 10.7649 22.0647L10.7916 21.0528C10.8218 19.9099 11.6131 18.9283 12.724 18.6557L17.8214 17.4049C23.3875 16.0391 29.2614 17.7152 33.2669 21.8122C33.6789 22.2337 33.8292 22.8456 33.6593 23.4097C32.008 28.8949 27.5787 33.0992 22.0126 34.4651L16.8763 35.7254Z" fill="#F76F99"/>
<path d="M15.515 11.7368C14.9219 10.7806 15.0276 9.54861 15.775 8.70729L16.5842 7.79632C17.5163 6.74695 18.3404 5.6064 19.0438 4.39194L19.9862 2.76474C20.0772 2.60764 20.2444 2.51024 20.426 2.50857L21.3169 2.50039C23.115 2.48388 24.902 2.21669 26.6262 1.70657L27.5974 1.41922C28.6944 1.09468 29.873 1.54348 30.4757 2.51522L33.2411 6.97369C36.2609 11.8422 36.481 17.9433 33.8199 23.0166C33.5462 23.5384 33.0104 23.8703 32.421 23.8832C26.6909 24.0086 21.3213 21.0978 18.3015 16.2293L15.515 11.7368Z" fill="#F76F99"/>
<path d="M385.572 -25.7881C387.356 -27.8979 390.315 -28.586 392.848 -27.4801L395.59 -26.2827C398.75 -24.9033 402.04 -23.8456 405.412 -23.1255L409.929 -22.1606C410.365 -22.0675 410.719 -21.7511 410.861 -21.3285L411.556 -19.2554C412.959 -15.0714 414.939 -11.1035 417.44 -7.46654L418.848 -5.41783C420.439 -3.10398 420.284 -0.0126991 418.471 2.13136L410.152 11.9685C401.067 22.7104 386.978 27.8534 373.104 25.4922C371.677 25.2493 370.495 24.2507 370.018 22.8849C365.377 9.60667 368.104 -5.13404 377.189 -15.8759L385.572 -25.7881Z" fill="#F9A8C1"/>
<path d="M422.918 19.9013C425.478 20.9453 427.047 23.5451 426.777 26.2944L426.485 29.2713C426.149 32.7004 426.159 36.1547 426.515 39.5817L426.993 44.1735C427.039 44.6168 426.848 45.0516 426.489 45.3168L424.731 46.6181C421.183 49.2445 418.019 52.3529 415.331 55.8532L413.817 57.825C412.106 60.0519 409.117 60.8604 406.516 59.7995L394.584 54.9317C381.555 49.6162 372.307 37.814 370.267 23.8976C370.057 22.4662 370.642 21.0339 371.794 20.1581C382.996 11.6439 397.866 9.68088 410.895 14.9964L422.918 19.9013Z" fill="#F9A8C1"/>
<path d="M390.98 69.518C390.778 72.273 388.789 74.5678 386.089 75.1611L383.166 75.8035C379.799 76.5435 376.515 77.6206 373.364 79.0186L369.142 80.8916C368.734 81.0724 368.261 81.0247 367.898 80.766L366.116 79.4972C362.521 76.9364 358.585 74.8896 354.423 73.4159L352.079 72.5858C349.431 71.6483 347.738 69.0567 347.944 66.257L348.889 53.4114C349.921 39.3843 358.295 26.9471 370.907 20.7075C372.204 20.0657 373.748 20.1792 374.938 21.0037C386.501 29.0198 392.965 42.5474 391.933 56.5744L390.98 69.518Z" fill="#F9A8C1"/>
<path d="M333.895 54.4934C331.211 55.1521 328.412 53.9705 327.013 51.588L325.499 49.0081C323.754 46.0363 321.714 43.2477 319.41 40.6846L316.323 37.2504C316.025 36.9189 315.924 36.4547 316.058 36.0295L316.715 33.9441C318.041 29.735 318.772 25.3616 318.889 20.9505L318.954 18.4657C319.028 15.6594 320.971 13.2492 323.699 12.5798L336.215 9.50855C349.883 6.15486 364.306 10.2705 374.141 20.3306C375.152 21.3653 375.522 22.8678 375.104 24.2531C371.05 37.7216 360.174 48.045 346.506 51.3987L333.895 54.4934Z" fill="#F9A8C1"/>
<path d="M330.552 -4.40905C329.096 -6.75694 329.355 -9.78201 331.19 -11.8478L333.177 -14.0846C335.466 -16.6613 337.49 -19.4618 339.217 -22.4439L341.531 -26.4393C341.754 -26.8251 342.165 -27.0643 342.611 -27.0683L344.798 -27.0884C349.214 -27.129 353.601 -27.785 357.835 -29.0376L360.22 -29.7432C362.913 -30.5401 365.807 -29.4381 367.287 -27.052L374.078 -16.1046C381.492 -4.15022 382.033 10.8306 375.499 23.2876C374.827 24.569 373.511 25.3841 372.064 25.4157C357.994 25.7236 344.809 18.5763 337.394 6.62196L330.552 -4.40905Z" fill="#F9A8C1"/>
<path d="M377.922 3.02996C378.649 2.17073 379.854 1.89051 380.886 2.34089L382.002 2.82855C383.289 3.3903 384.629 3.82107 386.002 4.11435L387.842 4.50729C388.02 4.54523 388.164 4.67408 388.222 4.8462L388.505 5.69046C389.076 7.39444 389.883 9.0104 390.901 10.4916L391.474 11.326C392.122 12.2683 392.059 13.5273 391.321 14.4004L387.933 18.4067C384.233 22.7815 378.495 24.876 372.845 23.9144C372.264 23.8155 371.782 23.4088 371.588 22.8525C369.698 17.4448 370.808 11.4415 374.508 7.0668L377.922 3.02996Z" fill="#F76F99"/>
<path d="M393.132 21.6374C394.174 22.0626 394.813 23.1214 394.704 24.2411L394.585 25.4534C394.448 26.85 394.452 28.2568 394.597 29.6525L394.792 31.5225C394.81 31.7031 394.732 31.8801 394.586 31.9882L393.87 32.5181C392.425 33.5878 391.137 34.8537 390.042 36.2792L389.425 37.0822C388.729 37.9892 387.511 38.3184 386.452 37.8864L381.593 35.9039C376.286 33.7391 372.52 28.9325 371.689 23.265C371.604 22.682 371.842 22.0987 372.311 21.742C376.873 18.2745 382.929 17.4751 388.236 19.6399L393.132 21.6374Z" fill="#F76F99"/>
<path d="M380.125 41.8443C380.042 42.9663 379.232 43.9009 378.133 44.1425L376.942 44.4042C375.571 44.7055 374.234 45.1442 372.95 45.7135L371.231 46.4763C371.065 46.55 370.872 46.5305 370.724 46.4252L369.999 45.9085C368.535 44.8655 366.932 44.032 365.237 43.4318L364.282 43.0937C363.204 42.7119 362.514 41.6565 362.598 40.5162L362.983 35.2847C363.403 29.5721 366.813 24.5069 371.95 21.9658C372.478 21.7044 373.107 21.7506 373.591 22.0864C378.301 25.351 380.933 30.8603 380.513 36.5729L380.125 41.8443Z" fill="#F76F99"/>
<path d="M356.876 35.7254C355.783 35.9937 354.643 35.5125 354.074 34.5421L353.457 33.4915C352.746 32.2812 351.916 31.1455 350.977 30.1016L349.72 28.703C349.599 28.568 349.558 28.3789 349.612 28.2058L349.88 27.3565C350.42 25.6423 350.718 23.8612 350.765 22.0647L350.792 21.0528C350.822 19.9099 351.613 18.9283 352.724 18.6557L357.821 17.4049C363.387 16.0391 369.261 17.7152 373.267 21.8122C373.679 22.2337 373.829 22.8456 373.659 23.4097C372.008 28.8949 367.579 33.0992 362.013 34.4651L356.876 35.7254Z" fill="#F76F99"/>
<path d="M355.515 11.7368C354.922 10.7806 355.028 9.54861 355.775 8.70729L356.584 7.79632C357.516 6.74695 358.34 5.6064 359.044 4.39194L359.986 2.76474C360.077 2.60764 360.244 2.51024 360.426 2.50857L361.317 2.50039C363.115 2.48388 364.902 2.21669 366.626 1.70657L367.597 1.41922C368.694 1.09468 369.873 1.54348 370.476 2.51522L373.241 6.97369C376.261 11.8422 376.481 17.9433 373.82 23.0166C373.546 23.5384 373.01 23.8703 372.421 23.8832C366.691 24.0086 361.321 21.0978 358.302 16.2293L355.515 11.7368Z" fill="#F76F99"/>
<path d="M359.156 97.6543C359.046 96.3395 359.813 95.1082 361.042 94.6264L362.372 94.1047C363.904 93.5037 365.372 92.7499 366.754 91.8548L368.605 90.6554C368.783 90.5396 369.01 90.5267 369.2 90.6216L370.135 91.0868C372.021 92.0258 374.029 92.6969 376.102 93.0807L377.269 93.2969C378.587 93.541 379.579 94.6369 379.69 95.973L380.203 102.103C380.762 108.797 377.742 115.29 372.261 119.177C371.697 119.577 370.96 119.639 370.338 119.339C364.288 116.423 360.232 110.525 359.673 103.831L359.156 97.6543Z" fill="#F9A8C1"/>
<path d="M387.191 100.471C388.408 99.9595 389.816 100.307 390.653 101.327L391.559 102.43C392.603 103.702 393.773 104.865 395.051 105.901L396.762 107.29C396.927 107.424 397.01 107.636 396.978 107.846L396.824 108.879C396.513 110.964 396.494 113.082 396.768 115.171L396.923 116.348C397.097 117.677 396.361 118.96 395.124 119.48L389.452 121.865C383.259 124.469 376.151 123.607 370.764 119.597C370.21 119.185 369.924 118.503 370.017 117.819C370.925 111.162 375.282 105.479 381.476 102.874L387.191 100.471Z" fill="#F9A8C1"/>
<path d="M393.16 128.006C394.022 129.005 394.125 130.451 393.414 131.563L392.644 132.767C391.757 134.153 391.012 135.626 390.42 137.162L389.627 139.22C389.55 139.418 389.375 139.562 389.165 139.597L388.135 139.77C386.056 140.12 384.036 140.757 382.134 141.665L381.062 142.176C379.851 142.754 378.405 142.45 377.529 141.435L373.511 136.779C369.124 131.695 367.752 124.669 369.903 118.304C370.125 117.649 370.684 117.166 371.364 117.043C377.975 115.845 384.724 118.23 389.112 123.315L393.16 128.006Z" fill="#F9A8C1"/>
<path d="M368.814 142.207C368.13 143.336 366.786 143.882 365.51 143.55L364.127 143.19C362.535 142.776 360.905 142.523 359.261 142.435L357.059 142.318C356.847 142.307 356.656 142.184 356.558 141.995L356.076 141.069C355.102 139.201 353.872 137.477 352.422 135.949L351.606 135.087C350.683 134.115 350.525 132.645 351.22 131.498L354.409 126.236C357.891 120.489 364.151 117.009 370.868 117.085C371.559 117.092 372.191 117.475 372.517 118.084C375.696 124 375.509 131.157 372.027 136.904L368.814 142.207Z" fill="#F9A8C1"/>
<path d="M347.798 123.449C346.514 123.148 345.58 122.039 345.502 120.722L345.418 119.295C345.321 117.653 345.058 116.024 344.635 114.434L344.067 112.304C344.012 112.098 344.07 111.879 344.219 111.727L344.951 110.981C346.428 109.477 347.688 107.774 348.694 105.922L349.261 104.878C349.902 103.7 351.251 103.095 352.556 103.401L358.545 104.804C365.084 106.337 370.325 111.213 372.325 117.625C372.53 118.284 372.361 119.003 371.883 119.503C367.237 124.357 360.372 126.395 353.833 124.863L347.798 123.449Z" fill="#F9A8C1"/>
<path d="M366.303 109.967C366.259 109.431 366.571 108.93 367.071 108.734L367.613 108.521C368.237 108.276 368.835 107.969 369.397 107.605L370.151 107.116C370.224 107.069 370.316 107.064 370.394 107.103L370.774 107.292C371.543 107.674 372.361 107.948 373.204 108.104L373.68 108.192C374.217 108.292 374.621 108.738 374.666 109.282L374.875 111.779C375.103 114.505 373.872 117.149 371.64 118.732C371.411 118.895 371.111 118.92 370.857 118.798C368.393 117.61 366.741 115.209 366.514 112.482L366.303 109.967Z" fill="#F76F99"/>
<path d="M377.721 111.114C378.216 110.906 378.79 111.047 379.131 111.462L379.5 111.912C379.925 112.43 380.401 112.903 380.922 113.325L381.619 113.891C381.686 113.946 381.719 114.032 381.707 114.118L381.644 114.538C381.517 115.387 381.509 116.25 381.621 117.101L381.684 117.58C381.755 118.121 381.455 118.644 380.952 118.855L378.642 119.827C376.119 120.887 373.225 120.536 371.031 118.903C370.805 118.735 370.689 118.458 370.727 118.179C371.096 115.468 372.871 113.153 375.393 112.093L377.721 111.114Z" fill="#F76F99"/>
<path d="M380.152 122.328C380.503 122.735 380.545 123.324 380.255 123.776L379.942 124.267C379.58 124.831 379.277 125.431 379.036 126.056L378.713 126.895C378.682 126.975 378.61 127.034 378.525 127.048L378.105 127.119C377.259 127.261 376.436 127.521 375.661 127.89L375.225 128.099C374.732 128.334 374.142 128.21 373.786 127.797L372.149 125.901C370.363 123.83 369.804 120.969 370.68 118.376C370.77 118.11 370.998 117.913 371.275 117.863C373.967 117.375 376.716 118.346 378.503 120.417L380.152 122.328Z" fill="#F76F99"/>
<path d="M370.236 128.111C369.958 128.571 369.411 128.793 368.891 128.658L368.328 128.512C367.679 128.343 367.015 128.24 366.346 128.204L365.449 128.157C365.363 128.152 365.285 128.102 365.245 128.025L365.049 127.648C364.652 126.887 364.151 126.185 363.561 125.562L363.228 125.212C362.853 124.816 362.788 124.217 363.071 123.75L364.37 121.607C365.788 119.266 368.337 117.849 371.073 117.88C371.354 117.883 371.612 118.039 371.745 118.287C373.039 120.696 372.963 123.611 371.545 125.952L370.236 128.111Z" fill="#F76F99"/>
<path d="M361.678 120.472C361.155 120.349 360.774 119.897 360.743 119.361L360.708 118.78C360.669 118.111 360.562 117.448 360.389 116.8L360.158 115.933C360.136 115.849 360.159 115.76 360.22 115.698L360.518 115.394C361.12 114.782 361.633 114.088 362.043 113.334L362.274 112.909C362.534 112.429 363.084 112.183 363.615 112.307L366.054 112.879C368.718 113.503 370.852 115.488 371.666 118.1C371.75 118.368 371.681 118.661 371.487 118.865C369.594 120.842 366.799 121.672 364.135 121.048L361.678 120.472Z" fill="#F76F99"/>
<path d="M364.032 171.766C363.96 170.899 364.465 170.087 365.275 169.769L366.153 169.425C367.163 169.029 368.131 168.532 369.042 167.941L370.263 167.15C370.381 167.074 370.53 167.066 370.656 167.128L371.272 167.435C372.516 168.054 373.84 168.497 375.207 168.75L375.976 168.892C376.846 169.053 377.499 169.776 377.573 170.657L377.911 174.7C378.28 179.114 376.288 183.396 372.674 185.959C372.302 186.223 371.816 186.264 371.406 186.066C367.416 184.143 364.741 180.254 364.372 175.839L364.032 171.766Z" fill="#F9A8C1"/>
<path d="M382.52 173.623C383.322 173.286 384.25 173.516 384.802 174.188L385.4 174.915C386.089 175.754 386.86 176.521 387.702 177.204L388.831 178.12C388.94 178.209 388.994 178.348 388.974 178.487L388.872 179.168C388.667 180.543 388.654 181.939 388.835 183.317L388.937 184.093C389.052 184.97 388.566 185.816 387.751 186.159L384.011 187.731C379.926 189.449 375.239 188.88 371.687 186.236C371.321 185.964 371.133 185.515 371.194 185.063C371.793 180.674 374.666 176.926 378.751 175.208L382.52 173.623Z" fill="#F9A8C1"/>
<path d="M386.456 191.781C387.024 192.44 387.092 193.394 386.623 194.127L386.116 194.921C385.531 195.835 385.039 196.806 384.649 197.819L384.126 199.176C384.075 199.307 383.959 199.402 383.821 199.425L383.142 199.539C381.771 199.77 380.439 200.19 379.184 200.789L378.478 201.126C377.679 201.507 376.725 201.306 376.148 200.637L373.498 197.567C370.605 194.214 369.7 189.58 371.119 185.383C371.265 184.951 371.634 184.633 372.082 184.552C376.442 183.762 380.893 185.335 383.786 188.687L386.456 191.781Z" fill="#F9A8C1"/>
<path d="M370.401 201.146C369.95 201.89 369.064 202.25 368.222 202.031L367.31 201.794C366.26 201.521 365.185 201.354 364.101 201.297L362.649 201.219C362.509 201.212 362.383 201.131 362.318 201.006L362 200.396C361.358 199.164 360.548 198.027 359.591 197.019L359.053 196.451C358.444 195.81 358.34 194.841 358.799 194.084L360.902 190.614C363.198 186.824 367.325 184.529 371.755 184.579C372.211 184.584 372.627 184.837 372.843 185.238C374.939 189.14 374.816 193.859 372.52 197.649L370.401 201.146Z" fill="#F9A8C1"/>
<path d="M356.542 188.776C355.695 188.577 355.079 187.846 355.028 186.978L354.972 186.037C354.908 184.954 354.735 183.88 354.456 182.831L354.081 181.426C354.045 181.291 354.083 181.146 354.182 181.046L354.664 180.554C355.638 179.562 356.469 178.439 357.133 177.218L357.507 176.53C357.929 175.753 358.819 175.354 359.68 175.555L363.629 176.481C367.941 177.492 371.397 180.707 372.716 184.935C372.852 185.37 372.74 185.845 372.425 186.174C369.361 189.375 364.834 190.719 360.521 189.709L356.542 188.776Z" fill="#F9A8C1"/>
<path d="M368.745 179.885C368.716 179.532 368.922 179.202 369.251 179.072L369.609 178.932C370.02 178.771 370.415 178.568 370.786 178.328L371.283 178.006C371.331 177.975 371.391 177.971 371.443 177.997L371.694 178.121C372.2 178.374 372.74 178.554 373.296 178.657L373.61 178.715C373.964 178.781 374.23 179.075 374.26 179.434L374.398 181.08C374.548 182.878 373.737 184.622 372.265 185.666C372.113 185.773 371.915 185.79 371.748 185.709C370.123 184.926 369.034 183.342 368.884 181.544L368.745 179.885Z" fill="#F76F99"/>
<path d="M376.274 180.642C376.601 180.504 376.979 180.598 377.204 180.872L377.448 181.168C377.728 181.509 378.042 181.822 378.385 182.1L378.845 182.473C378.889 182.509 378.911 182.566 378.903 182.623L378.861 182.9C378.778 183.46 378.773 184.029 378.846 184.59L378.888 184.906C378.935 185.263 378.737 185.607 378.405 185.747L376.882 186.387C375.218 187.087 373.309 186.855 371.863 185.778C371.714 185.668 371.637 185.485 371.662 185.301C371.906 183.513 373.076 181.987 374.74 181.287L376.274 180.642Z" fill="#F76F99"/>
<path d="M377.878 188.037C378.109 188.305 378.137 188.693 377.946 188.992L377.739 189.315C377.501 189.688 377.301 190.083 377.142 190.496L376.929 191.048C376.908 191.102 376.861 191.14 376.804 191.15L376.528 191.196C375.97 191.29 375.427 191.461 374.916 191.705L374.628 191.842C374.303 191.997 373.915 191.916 373.679 191.643L372.6 190.393C371.422 189.027 371.054 187.14 371.631 185.431C371.691 185.255 371.841 185.126 372.024 185.092C373.799 184.771 375.612 185.411 376.79 186.777L377.878 188.037Z" fill="#F76F99"/>
<path d="M371.339 191.851C371.155 192.154 370.794 192.3 370.451 192.211L370.08 192.115C369.652 192.003 369.215 191.935 368.773 191.912L368.182 191.881C368.125 191.877 368.074 191.845 368.047 191.794L367.918 191.545C367.656 191.043 367.326 190.58 366.937 190.17L366.717 189.939C366.47 189.677 366.427 189.283 366.614 188.975L367.47 187.561C368.405 186.018 370.086 185.083 371.89 185.104C372.076 185.106 372.246 185.209 372.334 185.372C373.187 186.961 373.137 188.883 372.202 190.427L371.339 191.851Z" fill="#F76F99"/>
<path d="M365.695 186.813C365.35 186.732 365.099 186.434 365.078 186.08L365.055 185.697C365.029 185.256 364.959 184.819 364.845 184.392L364.693 183.82C364.678 183.764 364.693 183.706 364.734 183.665L364.93 183.465C365.327 183.061 365.665 182.603 365.935 182.106L366.088 181.825C366.26 181.509 366.622 181.346 366.973 181.429L368.581 181.806C370.337 182.217 371.745 183.527 372.282 185.249C372.337 185.426 372.292 185.619 372.163 185.753C370.915 187.057 369.072 187.604 367.315 187.193L365.695 186.813Z" fill="#F76F99"/>
</svg>
